<?xml version="1.0" encoding="UTF-8"?>
<svg version="1.1" viewBox="0 0 800 800" width="1280" height="1280" xmlns="http://www.w3.org/2000/svg">
<path transform="translate(0)" d="m0 0h800v800h-800z" fill="#FCFCFC"/>
<path transform="translate(373,144)" d="m0 0h10l1 2-5 14-4 2-2 5 4 4 5-6 5-2 2-6h3 6l1-5 3-3 7 2 2 2v4l-7 2-2 5-8 1 2 5 5 3 2 7 4-1 4-7 5 1 3 1 2-5 20-1 2 2-1 4-11 3-6 1-2 3h-9v5l-4 1-5 1-3 1v3 3l-10 3-1 7-2 2-6 2-1 7-5 2-3 3v7l-3 3-7 14 7-1 1-7 6 1 5 1 3-8 3 1 2 3h5v-5h2v-2l4 1 1 3h5l2-5 2-1 2 1 1 3 4 2 2-7 4-1 3 4 5-1 3-5 3 1 2 4 2-1 3-6 4-1 1 3v3l6-2 3-3 4 1 2 3 5-1 3-3 4 3-2 5-6 5-4-2-2-2-7 1-2 5h-4l-2-1v-3l-11 2-1 6h-5l-3-4h-3l-3 4-8-2-3 5-4-1-1-3h-5l-3 7-8-2-1 5h-5v-4l-5 1-4 9h-5l-5-2h-2l2 7-1 1h-11l-2 4-2 2-1 4h-3l-3 7 12-3 1-3 3-3 1-5h3l2 4 4-2 4-4 6 1 4-2 5 1v2l5-3h5l4 2 3-2h3l1 6 5-2 4-4h5l-1 7 6-1 4-3h4l2 11-2 2-6-1v-2l-5 2-1 3-4-2-2-3h-6l-3 6-4-5-7-1-1 6-5-5-5-1-2 4-4-4h-6l-3 4 1 6 3 2v5l-5-1-3-2h-3l2 5 8 2 1-2 4 1 4 4h3l1-2h5l-1 6-4 1v3l-7-1-3 3-3-6-6-1-1 5-4-1v-2l-3 1-2 4-4-1h-3-2l-1 3-5-2h-3l-1 9 8-3 6 1 1 3h3l4-1 2 2h6l6-9h2l2 7 7-3 2-5 3 1 16-1h4v2l7-5 1-6h3l1 2h5l4-5 4 1 3 1v2l-5 2h2l5-3 3-5h2l1 5 8-2 1-5 5 1 4 1 2-6h4v2l3-1 5-6 6-2 2-5h13v4l-8 4h-2v6l-6-1-3 5-1 4-9-1v5l-6-1-3 1-1 5-6-2-5 1-1 2-10-1-2 5-5-1-1-1h-7l1 7-4-2-1-3-8 4-4 3-1 3 7-2 1-4h2l1 4v1l8-1 1-4h3l-1 6 5 1 3-3 4 1 2 6 8-2 1 3h-2l2 3 4-2h5v3h-2v4l10 1 2 5 6 4-2 10-5 1-1-7-5-4-5 2-2-4-9-1-3-5-6-2-2-5-5-1-1 3-4-1-1-3-6 1-4-2-5 3-4-2h-6l-2 4-3-1-4-5h2l-3-5v-2l4 2v2l7-1 2-5 3-5-3-1-3 4v3l-5-1-2-2-7 2v6l-6-1-1-3-7 2 1 6h-4l-1-3-10 1v2l-3 2h-5l1 2 2 1-2 2h-7v-5l5-3 7-3 1-3-9 1h-6l-4 2-2-3-6-1-2 3h-2v-5l-8-1v2l-4-1-1-4h-5l-3 8h-3v-2l-8-1-1 5-5-1-4-1-9 2-2 2-5 1-2 1v6l2 4 6 2 6-8 8 4 4-4 4 2 3 2 5-4h9l4-1 1 6v2l3 1 1-4 4-4 4 1-1 4-4 1v3l10-2h5v-2l2 1 1 1 19-1 5-1 1 2h-5v2l-10 1 1 7 8-1 1-4h3l4 4 8-1-1-3 4 1v-2l3 1 2 4 4-1h4l5 5h6l2-4h2v7l7-3 2-1 5 5 4-2 1-2 5 1 6 4v3l-12-1-1 5-5-1-5-4h-2l-1 3-6 1-2-4-5 1-1 3-3-1-3-5-6-2-3 4-3-1-2-5h-9v6l-3-1-3-4-6-1v5l-3 2-2-1-3-5-5-2h-10l-3 1v2l-2 1 3 3 4 1v-3l7-1-1 7 1 5-5-1-4-2-4 2-5-4-7 1-4-4h-7l-2 3h-3l-1-7-4 1-5 3-1-6h-5l-5 2-1-8-6-2v4l-4 1-3-3h-5v6l-5 1-3-4-6-1 1 3-1 3-3 1-3-2-5 1-3 2h-3v2h-3l-1 3-5 3h-2v2l-6 4h-2l-1 3h-3l-1 3h-3v2l-3 1-4 5h-2v2l-7 4h-2l3 7 8 9h7l8-3 16-4 8-3 1-3-4-7v-7l8-9 7-4h9l5 3 1 2v6l-5 10-3 5v3l-8 2-10 4-21 6-8 2 8 4 12 5 14 10 8 10 2 6-3 5-3 2h-9l-15-5-13-9-7-5h-2l2 5 7 11 3 8-1 6h-2v9l4 16 9 31 2-2 5-12 11-21 7-11 11-14 7-8h3l-3 9-5 16-2 11v16l3 12 4 6 9 4 3 1-1 3-10-3-6-5-5-10-1-5v-18l3-15 4-11-5 5-12 18-11 20-10 21-3 1-5-18-6-24-3-5-2-20 1-7-6-11-8-13-6-7v-2l-6-1-1 7 4 16 8 18 11 16 4 4-1 8-8 16-7 9-8 8-9 5-9 3-9 1-11-1-9-4-6-4-6-8-1-8 4-8 6-5 5-2h21l9 4 2-7v-14l-3-14-5-19-2-5-2 11-8 16-6 9-3 3h-2l1-4 14-27 4-11 1-9h-3l-3 9-1 2h-2l-1 6-6 11h-2v2h-2l1-5 10-21 3-7v-3l-2-1-2 5-3 1-1 5-10 16-10 14-5 5-3-1 5-9 7-10 18-28 1-1-3-4-6 6h-2l-1 5-3 4h-2v2l-8 7-10 8-2-1 7-8 21-21-3-1-1 2h-2v2h-2v2h-2v2h-2l-2 4-14 14-16 12-6 3h-2l2-5 13-11 10-8 11-11h2l2-4 5-4 7-2 3-6 4-3 5-1v3l5 1 1-2 6 8-1 6h2l2 12h2v9l-1 4 2 10 5 18 1 6v15l-3 7-5 5 2 1-7 11-4 4-4-1 8-9 3-5-1-3-11-3h-11l-8 3-5 5-1 2v9l5 7 11 6 5 1h11l12-3 11-7 7-8 8-13 5-9-1-4-5-4-9-14-8-16-4-13-3-13-1-3 4-7h5l-1-4-7-1-2 1v-2h-5l-2-5v-1l1-4 5 1-1 4 5-3 5-6-3-4 1-4 4-3 2 7h3l7-5h2l1-2 3-3h3l1-3h3l2-4 16-12 12-7 10-6 11-4h3l1-4-2-1 3-2v-3h-4l-1 5-7-1-2 1 2 3-1 4-7-2-3 1-3 3-9 4-37 24h-3v-3h3l1-3h3l1-3 11-7 13-9 12-8 8-6 3-2h3l2-4 9-5 5-4 6-3 1-4h9l10-6 6-3v-4l5-4 2-3h2l2-4h2l1-2 4-1-4 7-4 4 1 1 5-2 1-3 10-6 7-4 1-3-7 1 1-3 4-1v-2l5-1v2l5-3 2-4 2-8 4-4-1-4-1-1h-7l-3 5 1 4-6 2-2 7-10 3-3-1 5-5v-4h-6l-5 6-1 4-9 4-3-1 5-8 3-5 7-4 1-4-5 1-3 3-3 5-4 3h-2l-2 5-5 5-5 2-3 3 8-1 3 1 1-3 3 1-4 5-1 5-6-1-5 6-8 3-10 3-2 2v-3h-2l1 3-9 5-7 6h-2l-1 3h-3v5l-7 2-5 5-6 4-5 4-3 1-1 2 7-3 4-4 6-1v2h2v2l-4 1-1 2h2l-1 5-6-1-16 8-7 4-10 10h-3v-5l11-12 10-9 10-8 1-2h2v-2l6-3 5-5 5-4 1-5-6-1h-2v4h-2v-2l-5 2-1-2-5 1-4-5 4-1 4 2 7-6 5-1v3l6 1 3 3 5-1 4-3 1-3h-7l-8 1h-3l1-3 3-1v-3l4-9 4-7 2-4 4-2 1 4-3 4v10l-5-2-4 8h9l1-2 6 1 5-3 5-4 3-1v-4h2l1-2 3 2 5-4 8-10v-2l-4-2-1-11 4-5-1-4-2-2 1-4h3l1-8-3-1 1-4 3-1-2-10h6l-1-6-2-1 1-3 4 1 5 8-5 1-1 3h2l1 3-3 4h-2l2 4 3 1 1-4 3-9v-2l7-2 1-8 3-2 5-1 1-3-1-5 7-2 1-2-3-1 4-1h2l1-8 3-1 9 3v3l-6 3-2 2-1 5-5 2-2 4 4 11 4 3 3-1 2-9 5-3h2l2-4 4-5h2v-2l6-2-1-6 5-3h2l1-10 4-2h3v-4h-2l-1-7 3 1 3-1 1-8v-6z" fill="#969205"/>
<path transform="translate(237,208)" d="m0 0h3v10l1 4h5l-1 5-1 1v5l4 4-2 3-1 6 6-2 1-19 2-1 1-4-1-6 5-5h4l3 4-2 4-4 4v6l2 1v3l-4 3 1 5 1 4-4 4-1 5 4 2-5 5-2 1-1 4h2v2l4 1 2 1 4-7 5 1 2 4 5 1 3-2 1 2 4 2-2 4-9 11-4 2-2-2-2 2-1 4-6 3-4 4-7 1h-3l-7 1-2-1 1-5 3-4 4 2v-9l3-5v-2l-4 2-3 7-4 6-3 7v3l-3 1-1 2 11-2 7 1-1 4-6 4-4-1-5-3-3-1v-3l-7 2-2 4-5 2-2-2-3 1h2l2 3 5-1v3l5-2v2h2v-4l6-1 3 3-2 5-7 5-4 5-5 1v2h-2l-2 4-11 9-13 12-5 6-1 5 5-3 9-9 22-11 6 1-1-2h2v-2h-2l1-3h4v-2h-2v-2l-7 3-4 4-6 1 1-3 7-4 3-3 6-2 2-4 3-2h5v-5l3-1 5-5 13-9v-2h4l10-3 4-2h4l2-4 3-3 4 1 2 1v-5l4-5h-2l-1 2-12 1 5-6 4-1 6-7 5-5 3-2 3-5 4-3 4 1-2 5-8 5-4 8-2 3 11-3 1-5 5-6h6l1 5-5 5 10-2 4-7 5-3-1-3 4-6h7l3 3-1 4-4 5-2 8-4 5h-3v-2l-5 1 1 3-5 1-1 2 4-2 3 1-1 4-10 6-7 4-3 3-4 3v-4l7-9-2-1-1 2-7 6-5 6h-2l1 4-16 9-5 1-5-1-1 5-9 5-5 4-7 4-1 2-3 1-2 2-7 4-5 4-30 20-2 2-5 3-1 2h-3v3l8-4 15-10 17-11 9-4h2l1-3 4-1 6 2-1-4-1-3 5-1 5 2-1-3 2-3 5 1-1 4-2 6-14 5-15 9-11 7-13 10-1 2-3 1-1 2-3 1-4 4-10 7-3-1-1-5-1-2-3 3 1 4 2 4-8 8-4 1 1-4-4-2 1 6v1 2l6 2 2-1 7 2 1 2-3 3h-3l-3 6 3 10 3 14 7 16 8 13 6 8 4 1-1 7-8 14-9 12-10 8-10 4-6 1h-11l-9-3-9-6-4-6v-9l4-6 7-4 4-1h11l11 3 2 4-8 11-3 3 4-1 7-9 2-4v-3l4-4 2-6v-15l-5-21-2-6-1-8 2-12h-2l-2-8v-4h-2l-1-4v-3l-4-6-4 1-3-3-6 2-3 4-3 5h-6l3-7-4-2v-4l4-2 6 1v-2h3l3-5h2l-2-1-2-5-3-3 1-2 5 2h3l4-9-4-1-4-5 1-3 7 3 1 3 3-3 1-5-4-5v-4h5l5 4h2l1-5 7-9 10-13 7-10 4-9h-6v-4l8-1v-2l-6-4v-4l6-2 1-6h2l-2-4-1-16-6-5 1-3 4-1v-5l-4-1-3-3v-3l2-1v-5l-8-4 1-3 7 1 6 1v13l1 3 4 1 6-9-2-5-7-3v-5l5 1 3 1-3-6-10-5 1-5 5 1 5 3 6-5 1 5-1 6 2 2-2 12 10-1-1 5-6 3v5l3 1v5l-3 1-1 5v11l3-1-1-6 3-6h8l-1-11 2-3h3l3 6v3h5l1-3v-1l1-4-3 1-1-4-4-4 1-3 2-1v-8h-5v-3l2-1-1-5-1-1v-5z" fill="#DBC420"/>
<path transform="translate(373,144)" d="m0 0h10l1 2-5 14-4 2-2 5 4 4 5-6 5-2 2-6h3 6l1-5 3-3 7 2 2 2v4l-7 2-2 5-8 1 2 5 5 3 2 7 4-1 4-7 5 1 3 1 2-5 20-1 2 2-1 4-11 3-6 1-2 3h-9v5l-4 1-5 1-3 1v3 3l-10 3-1 7-2 2-6 2-1 7-5 2-3 3v7l-3 3-7 14h-4l1-5 5-10-8 4h-2l1 5-2 8-5 8-5 7-3 5-2 1 1-6 4-4-1-4-1-1h-7l-3 5 1 4-6 2-2 7-10 3-3-1 5-5v-4h-6l-5 6-1 4-9 4-3-1 5-8 3-5 7-4 1-4-5 1-3 3-3 5-4 3h-2l-2 5-5 5-5 2-3 3 8-1 3 1 1-3 3 1-4 5-1 5-6-1-5 6-8 3-10 3-2 2v-3h-2l1 3-9 5-7 6h-2l-1 3h-3v5l-7 2-5 5-6 4-5 4-3 1-1 2 7-3 4-4 6-1v2h2v2l-4 1-1 2h2l-1 5-6-1-16 8-7 4-10 10h-3v-5l11-12 10-9 10-8 1-2h2v-2l6-3 5-5 5-4 1-5-6-1h-2v4h-2v-2l-5 2-1-2-5 1-4-5 4-1 4 2 7-6 5-1v3l6 1 3 3 5-1 4-3 1-3h-7l-8 1h-3l1-3 3-1v-3l4-9 4-7 2-4 4-2 1 4-3 4v10l-5-2-4 8h9l1-2 6 1 5-3 5-4 3-1v-4h2l1-2 3 2 5-4 8-10v-2l-4-2-1-11 4-5-1-4-2-2 1-4h3l1-8-3-1 1-4 3-1-2-10h6l-1-6-2-1 1-3 4 1 5 8-5 1-1 3h2l1 3-3 4h-2l2 4 3 1 1-4 3-9v-2l7-2 1-8 3-2 5-1 1-3-1-5 7-2 1-2-3-1 4-1h2l1-8 3-1 9 3v3l-6 3-2 2-1 5-5 2-2 4 4 11 4 3 3-1 2-9 5-3h2l2-4 4-5h2v-2l6-2-1-6 5-3h2l1-10 4-2h3v-4h-2l-1-7 3 1 3-1 1-8v-6z" fill="#D6CB1C"/>
<path transform="translate(251,368)" d="m0 0h9l5 3 1 2v6l-5 10-3 5v3l-8 2-10 4-21 6-8 2 8 4 12 5 14 10 8 10 2 6-3 5-3 2h-9l-15-5-13-9-7-5h-2l2 5 7 11 3 8-1 6h-2v9l4 16 9 31 2-2 5-12 11-21 7-11 11-14 7-8h3l-3 9-5 16-2 11v16l3 12 4 6 9 4 3 1-1 3-10-3-6-5-5-10-1-5v-18l3-15 4-11-5 5-12 18-11 20-10 21-3 1-5-18-6-24-3-5-2-20 1-7-6-11-8-13-6-7v-2l-6-1-1 7 4 16 8 18 11 16 4 4-1 8-8 16-7 9-8 8-9 5-9 3-9 1-11-1-9-4-6-4-6-8-1-8 4-8 6-5 5-2h21l9 4 2-7v-14l-3-14-5-19-2-5-2 11-8 16-6 9-3 3h-2l1-4 14-27 4-11 1-9h-3l-3 9-1 2h-2l-1 6-6 11h-2v2h-2l1-5 10-21 3-7v-3l-2-1-2 5-3 1-1 5-10 16-10 14-5 5-3-1 5-9 7-10 18-28 1-1-3-4-6 6h-2l-1 5-3 4h-2v2l-8 7-10 8-2-1 7-8 21-21-3-1-1 2h-2v2h-2v2h-2v2h-2l-2 4-14 14-16 12-6 3h-2l2-5 13-11 10-8 11-11h2l2-4 5-4 7-2 3-6 4-3 5-1v3l5 1 1-2 6 8-1 6h2l2 12h2v9l-1 4 2 10 5 18 1 6v15l-3 7-5 5 2 1-7 11-4 4-4-1 8-9 3-5-1-3-11-3h-11l-8 3-5 5-1 2v9l5 7 11 6 5 1h11l12-3 11-7 7-8 8-13 5-9-1-4-5-4-9-14-8-16-4-13-3-13-1-3 4-7h5l-1-4-7-1-2 1v-2h-5l-2-5v-1l1-4 5 1-1 4 5-3 5-6-3-4 1-4 4-3 2 7h3l6-4 4 1-2 4-6 2 3 7 8 9h7l8-3 16-4 8-3 1-3-4-7v-7l8-9z" fill="#D8CB19"/>
<path transform="translate(387,377)" d="m0 0 5 3 2 6-1 8-2 9-6 9-3 3-1 2 3 1v9l-7 10-5 4h-11-3l1 3h-3l4 8h-4l-5-8-3-1v9l-5 7-5-1-5-5-2-8h-2l-4 11-4 2 2-5 1-7-11 3h-7l-6-3-6-8v-2h-2v-8l-1-3-5-4-4-6-4-11 1-7 4-4h8l16 8 17 9 4 3 1 6 5 5v3h-4v2h-2v7l-1 3h2l2-4 2-3h2l-1-13-1-6-3-1v-9l-2-2 4-2v-5l-5-7-3-2v-2l4 1 3 4v2l3-1 2 1v-9l3-1v15l7 1v2l4-1 4 2 6-2 11-10 10-7z" fill="#A9A2CB"/>
<path transform="translate(371,272)" d="m0 0 4 1-3 4 1 6 3 2v5l-5-1-3-2h-3l2 5 8 2 1-2 4 1 4 4h3l1-2h5l-1 6-4 1v3l-7-1-3 3-3-6-6-1-1 5-4-1v-2l-3 1-2 4-4-1h-3-2l-1 3-5-2h-3l-1 9 8-3 6 1 1 3h3l4-1 2 2h6l6-9h2l2 7 7-3 2-5 3 1 16-1h4v2l7-5 1-6h3l1 2h5l4-5 4 1 3 1v2l-5 2h2l5-3 3-5h2l1 5 8-2 1-5 5 1 4 1 2-6h4v2l3-1 5-6 6-2 2-5h13v4l-8 4h-2v6l-6-1-3 5-1 4-9-1v5l-6-1-3 1-1 5-6-2-5 1-1 2-10-1-2 5-5-1-1-1h-7l1 7-4-2-1-3-8 4-4 3-1 3 7-2 1-4h2l1 4v1l8-1 1-4h3l-1 6 5 1 3-3 4 1 2 6 8-2 1 3h-2l2 3 4-2h5v3h-2v4l10 1 2 5 6 4-2 10-5 1-1-7-5-4-5 2-2-4-9-1-3-5-6-2-2-5-5-1-1 3-4-1-1-3-6 1-4-2-5 3-4-2h-6l-2 4-3-1-4-5h2l-3-5v-2l4 2v2l7-1 2-5 3-5-3-1-3 4v3l-5-1-2-2-7 2v6l-6-1-1-3-7 2 1 6h-4l-1-3-10 1v2l-3 2h-5l1 2 2 1-2 2h-7v-5l5-3 7-3 1-3-9 1-6-1-1-3-5-2h-2l-7-1-12-3v-2l-16 1-11 1-3 1 1-3h3l1-2 4-1 8-1 7-6 6-4 12-2 1-4 5-2 2 6 3-1-3-6 4-4 14-6z" fill="#D2C717"/>
<path transform="translate(293,122)" d="m0 0 2 1 1 7 8-3h8l8 4 4 5 1 7 10 9 5 8v8l-4 3h-8l-26-8h-4l3 5-5-1-1 4-4 1-5-1-2 4-4-1-1-4-9 9-9 11-8 6h-7l-3-3v-11l4-14 1-6-1-2v-6l6-9 5-4 9-2-3-7 3-1 1 5h2l1 2 3 1 1-4h-2l1-4 3-6 6-1 2 4h2l1 5 4-1v-9z" fill="#A49DCC"/>
<path transform="translate(325,181)" d="m0 0 10 2 1 4-6 3-2 2-1 5-5 2-2 4 4 11 1 6-3 1 1 5-1 2h-2l-2 4-5 1v5l1 2 4-1-1 3-4 3-3 5-3 6-5 4-3 5-4 3h-2l-2 5-5 5-5 2-3 3 8-1 3 1 1-3 3 1-4 5-1 5-6-1-5 6-8 3-10 3-2 2v-3h-2l1 3-9 5-7 6h-2l-1 3h-3v5l-7 2-5 5-6 4-5 4-3 1-1 2 7-3 4-4 6-1v2h2v2l-4 1-1 2h2l-1 5-6-1-16 8-7 4-10 10h-3v-5l11-12 10-9 10-8 1-2h2v-2l6-3 5-5 5-4 1-5-6-1h-2v4h-2v-2l-5 2-1-2-5 1-4-5 4-1 4 2 7-6 5-1v3l6 1 3 3 5-1 4-3 1-3h-7l-8 1h-3l1-3 3-1v-3l4-9 4-7 2-4 4-2 1 4-3 4v10l-5-2-4 8h9l1-2 6 1 5-3 5-4 3-1v-4h2l1-2 3 2 5-4 8-10v-2l-4-2-1-11 4-5-1-4-2-2 1-4h3l1-8-3-1 1-4 3-1-2-10h6l-1-6-2-1 1-3 4 1 5 8-5 1-1 3h2l1 3-3 4h-2l2 4 3 1 1-4 3-9v-2l7-2 1-8 3-2 5-1 1-3-1-5 7-2 1-2-3-1 4-1h2l1-8z" fill="#D4CA1D"/>
<path transform="translate(336,252)" d="m0 0h7l3 3-1 4-4 5-2 8-4 5h-3v-2l-5 1 1 3-5 1-1 2 4-2 3 1-1 4-10 6-7 4-3 3-4 3v-4l7-9-2-1-1 2-7 6-5 6h-2l1 4-16 9-5 1-5-1-1 5-9 5-5 4-7 4-1 2-3 1-2 2-7 4-5 4-30 20-2 2-5 3-1 2h-3v2l-6 1-1-5 3-6 10-10 22-11 6 1-1-2h2v-2h-2l1-3h4v-2h-2v-2l-7 3-4 4-6 1 1-3 7-4 3-3 6-2 2-4 3-2h5v-5l3-1 5-5 13-9v-2h4l10-3 4-2h4l2-4 3-3 4 1 2 1v-5l4-5h-2l-1 2-12 1 5-6 4-1 6-7 5-5 3-2 3-5 4-3 4 1-2 5-8 5-4 8-2 3 11-3 1-5 5-6h6l1 5-5 5 10-2 4-7 5-3-1-3z" fill="#D6CA1A"/>
<path transform="translate(174,407)" d="m0 0 7 1 2 3-3 3h-3l-3 6 3 10 3 14 7 16 8 13 6 8 4 1-1 7-8 14-9 12-10 8-10 4-6 1h-11l-9-3-9-6-4-6v-9l4-6 7-4 4-1h11l11 3 2 4-8 11-3 3 4-1 7-9 2-4v-3l4-4 2-6v-15l-5-21-2-6-1-8 3-8v-5h-2l-1-7 3-6 3-1 3 2-3-4z" fill="#F9F8F9"/>
<path transform="translate(237,208)" d="m0 0h3v10l1 4h5l-1 5-1 1v5l4 4-2 3-1 6 6-2 1-19 2-1 1-4-1-6 5-5h4l3 4-2 4-4 4v6l2 1v3l-4 3 1 5 1 4-4 4-1 5 4 2-5 5-2 1-1 4h2v2l4 1 5 2 1 2-9 1v2h-5l1-4 2-1v-2h-2l-1-2-1 5-2 1v2h-2v-2l-4-1v-4l2-3-1-3-6-2v8l-5 1-4 1-1 3 4 2-1 4-10 4-3 3-3 7h-2l-1 5 7 2v1l-8 1-2 4-4 1v3l2 1-5 5-2 6h-2l-2 5-7 10-9 12-4 5h-2v3l-3-1 4-8 13-16 8-12 3-5 2-5h-6v-4l8-1v-2l-6-4v-4l6-2 1-6h2l-2-4-1-16-6-5 1-3 4-1v-5l-4-1-3-3v-3l2-1v-5l-8-4 1-3 7 1 6 1v13l1 3 4 1 6-9-2-5-7-3v-5l5 1 3 1-3-6-10-5 1-5 5 1 5 3 6-5 1 5-1 6 2 2-2 12 10-1-1 5-6 3v5l3 1v5l-3 1-1 5v11l3-1-1-6 3-6h8l-1-11 2-3h3l3 6v3h5l1-3v-1l1-4-3 1-1-4-4-4 1-3 2-1v-8h-5v-3l2-1-1-5-1-1v-5z" fill="#8F8D02"/>
<path transform="translate(316,331)" d="m0 0h3l1 6v2l3 1 1-4 4-4 4 1-1 4-4 1v3l10-2h5v-2l2 1 1 1 19-1 5-1 1 2h-5v2l-10 1 1 7 8-1 1-4h3l4 4 8-1-1-3 4 1v-2l3 1 2 4 4-1h4l5 5h6l2-4h2v7l7-3 2-1 5 5 4-2 1-2 5 1 6 4v3l-12-1-1 5-5-1-5-4h-2l-1 3-6 1-2-4-5 1-1 3-3-1-3-5-6-2-3 4-3-1-2-5h-9v6l-3-1-3-4-6-1v5l-3 2-2-1-3-5-5-2h-10l-3 1v2l-2 1 3 3 4 1v-3l7-1-1 7 1 5-5-1-4-2-4 2-5-4-7 1-4-4h-7l-2 3h-3l-1-7-4 1-5 3-1-6h-5l-5 2-1-8-2-2 7-2 12-1v-2l-13 1-1-2-9 1 2-5 3-4 8 4 4-4 4 2 3 2 5-4h9z" fill="#D7CC19"/>
<path transform="translate(151,397)" d="m0 0 1 3 5 1 1-2 6 8-1 6h2l2 12h2v9l-1 4 2 10 5 18 1 6v15l-3 7-5 5 2 1-7 11-4 4-4-1 8-9 3-5-1-3-11-3h-11l-8 3-5 5-1 2v9l5 7 11 6 5 1h11l12-3 11-7 7-8 8-13 5-9 2-5 2-1-1 8-8 16-7 9-8 8-9 5-9 3-9 1-11-1-9-4-6-4-6-8-1-8 4-8 6-5 5-2h21l9 4 2-7v-14l-3-14-5-19-2-5-2 11-8 16-6 9-3 3h-2l1-4 14-27 4-11 1-9h-3l-3 9-1 2h-2l-1 6-6 11h-2v2h-2l1-5 10-21 3-7v-3l-2-1-2 5-3 1-1 5-10 16-10 14-5 5-3-1 5-9 7-10 18-28 1-1-3-4-6 6h-2l-1 5-3 4h-2v2l-8 7-10 8-2-1 7-8 21-21-3-1-1 2h-2v2h-2v2h-2v2h-2l-2 4-14 14-16 12-6 3h-2l2-5 13-11 10-8 11-11h2l2-4 5-4 7-2 3-6 4-3z" fill="#D7C71A"/>
<path transform="translate(509,451)" d="m0 0h9l-1 2-12 3-6 4-5 6-4 11-6 29-4 22-2 2-3-7-4-9-12-30-7-17-1 1-2 12-5 16-5 10-8 10-10 7-13 5-15 2-14-2-6-3-5-5-4-1-9 10-7 8v20l-2 11-4 6-3 2h-7l-4-5v-9l5-13 7-10 4-5v-7l-5 1h-8l-2-1-1-7-5 5-6 4-5 1-6-4-1-2-3-1-1 3-5 3h-6l-5-5v-9l4-6 7-4h10l1 5-3-2-9 1-4 2-2 4v8l3 3 6-2 4-5 2-5 2 1 3 9 3 2 5-1 5-4 9-15 3-1-1 4-2 5v8l2 3 7-1 4-6 3-9h3l-1 10v9l4-2 9-9 1-2 2-13 4-5 12-6h18l10 5 3 4-1 3-8-6-8-3h-9l-10 3-6 5-2 5 1 8 6 7 13 4h11l13-3 10-5 9-8 8-13 5-14 4-19 1-8h2l11 25 12 29 4 11 3-21 5-24 4-11 6-8 9-5z" fill="#422FA7"/>
<path transform="translate(404,311)" d="m0 0h4l1 3-6 9-7 1-4-4 3 5 1 4 1 2-6 3-2 2-12 2-1 3h2l2 6-9 2-3-3v-2l-4 2v2l-2 1h-6l-1-7 2-1h8v-2l4-1-9 1-15 1-3-3v2l-13 2h-2v-3l4-1v-4l-3-1-1 3-3 2-1 3-4-1v-8l-4 2h-9l-5 4-5-4-8 4-4-4-3 1-4 7-7-2-3-5v-6l5-3 4-1 1-1 12-2 3 2h3l1-4 4-1 4 2v2h3l1-6 2-3 5 1 2 4 3 1v-2l8 1v5h2l2-4 6 1 2 4 4-3h15l-1 4-10 5h-2v5l7-1-1-1v-3l8-2v-2l10-2 1 4h4l-2-6 2-2h6l1 2 5 1 1-5 8-3 2 2 4 2v-3l-2-1 3-1z" fill="#FDFDFB"/>
<path transform="translate(571,468)" d="m0 0 6 1 2 2 2 5h31v3l-9 1h-23v8l-4 15-5 9v6l6 7 6 1 5-5 7-10 6-5 3-1h11l1 17 4 4 5-1 7-7 4-8v-2l-4-2 1-5 3-4h3v6l11 2 1 2 1 16 1 3 7-1 6-4 6-8 3-1-1 5-7 8-6 4-7 1-4-2-2-4-2-16-5-2-3 10-4 6-8 7-7 1-7-6-8 5-7-1-4-5-3 1-5 5h-9l-7-6-1-5-5 5-7 6-10 3-7-1-7-8-2-2-7 7-7 3-6-1-6-4-3-5-1-7 2-5 6-5 7 1 2 3-1 9-3 3-4-1 3-3 1-8h-5l-3 4v6l5 8 6 1 8-4 3-4h2l2-6 5-8 5-2 8 1 2 3v6l-3 2-2-7-5-1-5 5-1 7 4 7 5 2 9-2 10-9 1-2v-28l1-8-11 1h-9l-3-1v-2l26-1 1-5z" fill="#422FA7"/>
<path transform="translate(235,257)" d="m0 0 6 3 2 4-4 5 5 2v2h2l1-7 3-2v3h2l1 3h-3l-1 4h5v-2l8-2-2-4 3-5 5 1 2 4 5 1 3-2 1 2 4 2-2 4-9 11-4 2-2-2-2 2-1 4-6 3-4 4-7 1h-3l-7 1-2-1 1-5 3-4 4 2v-9l3-5v-2l-4 2-3 7-4 6-3 7v3l-3 1-1 2 11-2 7 1-1 4-6 4-4-1-5-3-3-1v-3l-7 2-2 4-5 2-2-2-3 1h2l-2 10-4 4h-6l-1-3 3-7 3-5v-3l4-1 1-4 7-2-6-1 2-6h2l1-4 3-6 7-3 5-2 1-3-5-2 2-4 8-1v-8z" fill="#D7CC17"/>
<path transform="translate(283,393)" d="m0 0h8l16 8 17 9 4 3 1 6 5 5v3h-4v2h-2v11l-1 2h-2l-1 3h-3v2l-8 2h-7l-6-3-6-8v-2h-2v-8l-1-3-5-4-4-6-4-11 1-7z" fill="#F9360D"/>
<path transform="translate(371,272)" d="m0 0 4 1-3 4 1 6 3 2v5l-5-1-3-2h-3l2 5 8 2 1-2 4 1 4 4h3l1-2h5l-1 6-4 1v3l-7-1-3 3-3-6-6-1-1 5-4-1v-2l-3 1-2 4-4-1h-3-2l-1 3-5-2h-3l-1 9 8-3 6 1 1 3h3l4-1-2 1v7l-1-3-9 1-6-1-1-3-5-2h-2l-7-1-12-3v-2l-16 1-11 1-3 1 1-3h3l1-2 4-1 8-1 7-6 6-4 12-2 1-4 5-2 2 6 3-1-3-6 4-4 14-6z" fill="#939003"/>
<path transform="translate(313,238)" d="m0 0 1 2 4-1-1 3-4 3-3 5-3 6-5 4-3 5-4 3h-2l-2 5-5 5-5 2-3 3 8-1 3 1 1-3 3 1-4 5-1 5-6-1-5 6-8 3-10 3-2 2v-3h-2l1 3-9 5-7 6h-2l-1 3h-3v5l-7 2-5 5-6 4-5 4-3 1-1 2 7-3 4-4 6-1v2h2v2l-4 1-1 2h2l-1 5-6-1-16 8-7 4-10 10h-3v-5l11-12 10-9 10-8 1-2h2v-2l6-3 5-5 5-4 1-5-6-1h-2v4h-2v-2l-5 2-1-2-5 1-4-5 4-1 4 2 7-6 5-1v3l6 1 3 3 5-1 4-3 1-3h-7l-8 1h-3l1-3 3-1v-3l4-9 4-7 2-4 4-2 1 4-3 4v10l-5-2-4 8h9l1-2 6 1 5-3 5-4 3-1v-4h2l1-2 3 2 5-4 8-10v-2l-4-2v-3l5-1 7 2 5-3h2l2-4 5-4v-10l2-3z" fill="#999504"/>
<path transform="translate(374,184)" d="m0 0 5 2h5v-2l5 1 5 3v4l-5 3-4-2v7l-3 3h-2l-1-3h-4v6l1 5-4 2h-4l-1 7v4h-8l1 7-2 3h-2l1 5-5 7-2 4-10-1v-4l2-2 4-1 3-6 3-3-7-4-4 10-8 1v7l-7 5-2 7-6 2-2-1v-9l4-4-1-7 4-4 7-1-2-8 4-3h8l-2-5-1-2 3-5 4-1 6 1 1-4-1-1v-5l4-3h8l-1-4-2-4 5-1 7 2 1-6z" fill="#FDFDFC"/>
<path transform="translate(448,219)" d="m0 0 3 1v5l6-2 3-3 4 1 2 3 5-1 3-3 4 3-2 5-6 5-4-2-2-2-7 1-2 5h-4l-2-1v-3l-11 2-1 6h-5l-3-4h-3l-3 4-8-2-3 5-4-1-1-3h-5l-3 7-8-2-1 5h-5v-4l-5 1-4 9h-5l-5-2h-2l2 7-1 1h-11l1-3 2-1-3-2 4-6h2v5l8-5-4-3 7-1 1-7 6 1 5 1 3-8 3 1 2 3h5v-5h2v-2l4 1 1 3h5l2-5 2-1 2 1 1 3 4 2 2-7 4-1 3 4 5-1 3-5 3 1 2 4 2-1 3-6z" fill="#D6CB1F"/>
<path transform="translate(328,332)" d="m0 0 4 1-1 4-4 1v3l10-2h5v-2l2 1 1 1 19-1 5-1 1 2h-5v2l-10 1 1 7 8-1 1-4h3l4 4 8-1-1-3 4 1v-2l3 1 2 4 4-1h4l5 5h6l2-4h2v7l7-3 2-1 5 5 4-2 1-2 5 1 6 4v3l-12-1-1 5-5-1-5-4h-2l-1 3-6 1-2-4-5 1-1 3-3-1-3-5-6-2-3 4-3-1-2-5h-9v6l-3-1-3-4-6-1v5l-3 2-2-1-3-5-5-2-8-1v-2l9-2 1-3h-15l-5 1-7-1 3-9z" fill="#D3C817"/>
<path transform="translate(295,315)" d="m0 0 5 1 2 3h-6l-1 5-5-1-4-1-9 2-2 2-5 1-2 1v6l2 4 9 2 8-1 1 2h12v2l-2 1-10 1-1 1h-10v4l-4 1-3-3h-5v6l-5 1-3-4-6-1 1 3-1 3-3 1-3-2-5 1-3 2h-3v2h-3l-1 3-5 3h-2v2l-6 4h-2l-1 3h-3l-1 3h-3v2l-3 1-4 5h-2v2l-2-1-2-3h2l1-2 3-3h3l1-3h3l2-4 16-12 12-7 10-6 11-4h3l1-4-2-1 3-2v-3h-4l-1 5-7-1-2 1 2 3-1 4-7-2-3 1-3 3-3-1 5-4 6-4 5-4 9-6 8-5 9-4h3v-2l3-1h9z" fill="#999505"/>
<path transform="translate(213,213)" d="m0 0 2 1-1 10 2 2-2 12 10-1-1 5-6 3v5l3 1v5l-3 1-1 5v11 3l-6 5-1-3 1-2h-3l-1 2h-4l-2-13-6-5 1-3 4-1v-5l-4-1-3-3v-3l2-1v-5l-8-4 1-3 7 1 6 1v13l1 3 4 1 6-9-2-5-7-3v-5l5 1 3 1-3-6-10-5 1-5 5 1 5 3z" fill="#D5CA18"/>
<path transform="translate(307,255)" d="m0 0 4 1-2 5-8 5-4 8-2 3 11-3 1-5 5-6h6l1 5-6 4v6l-3 4-5 1-1 7-2 2h-6l-1 6-7 2-7 6-4 2-3 5-8-1v-7l-7-1 1-3 9-3 4-2h4l2-4 3-3 4 1 2 1v-5l4-5h-2l-1 2-12 1 5-6 4-1 6-7 5-5 3-2 3-5z" fill="#FEFDF3"/>
<path transform="translate(404,311)" d="m0 0h4l1 3-6 9-7 1-4-4 3 5 1 4 1 2-6 3-2 2-12 2-1 3h2l2 6-9 2-3-3v-2l-4 2v2l-2 1h-6l-1-7 2-1h8v-2l4-1-9 1-15 1-3-3v2l-9 1 4-8 2-2 7 1v4l7-1-1-1v-3l8-2v-2l10-2 1 4h4l-2-6 2-2h6l1 2 5 1 1-5 8-3 2 2 4 2v-3l-2-1 3-1z" fill="#D0C617"/>
<path transform="translate(387,377)" d="m0 0 5 3 2 6-1 8-2 9-6 9-3 3-1 2 3 1v6l-3 1v-6l-9 1-15 3-1 4-4 1v-4l-9 1-1-6 5-2 3 1 1-5 3 1 2 3 5 1-3-7v-3l1-2 7-1v2h-2l2 5h7l-4-9 1-7 5-2 9 1v7l-4-1-1-6-3 2 1 6 1 1h6l3-3-1-8-6-2 1-4 5-5h2v-2h-3l-1 3-8 7-1 2-5 2-3 1-1 3-8 6-8 7h-3l5-7 8-7 11-10 10-7z" fill="#F9380F"/>
<path transform="translate(195,412)" d="m0 0 8 2 17 6 15 8 11 9 4 6v5l-2 2-7-1-11-4-21-12-9-7-8-8-1-5z" fill="#FDFCFA"/>
<path transform="translate(182,419)" d="m0 0 4 1 5 5 8 11 9 15 1 7-1 5 2 18 3 5 1 7-5-2-4 3 1-5 2-8h-5l2-2-7-9-8-13-7-17-3-13 1-7z" fill="#FCF9F7"/>
<path transform="translate(321,215)" d="m0 0 3 1 1 4-3 1 1 5-1 2h-2l-2 4-5 1-1 6-2 2h-4l-1 9-1 5-6 5-3 3-5 3-9-2h-2l-2-8 4-5-1-4-2-2 1-4h3l1-3 4 1 2-4 5 1 2 4 8-13 7-2 3-3h3l1-3h2z" fill="#DAD026"/>
<path transform="translate(289,307)" d="m0 0m-1 1m-1 1 1 3 6-1 17-2h7l-1 3 9 1 6 2 6-1 1 2 5 1 1 3-3 4h-2l-2-3-6-1-2 3h-2v-5l-8-1v2l-4-1-1-4h-5l-3 8h-3v-2h-2l-3-4-10 1h-10v2l-14 6-13 9-6 4-5 4-6 4-1 2-11 6-12 8-20 13h-3v-3h3l1-3h3l1-3 11-7 13-9 12-8 8-6 3-2h3l2-4 9-5 5-4 6-3 1-4h9z" fill="#969304"/>
<path transform="translate(336,252)" d="m0 0h7l3 3-1 4-4 5-2 8-4 5h-3v-2l-5 1 1 3-5 1-1 2 4-2 3 1-1 4-10 6-7 4-3 3-4 3v-4l7-9-2-1-1 2-7 6-5 6h-2l1 4-16 9-5 1h-3v-2l3-1 3-5 8-5 5-4h5l1-6 7-2 1-7 6-2 2-3v-6l4-3 2 1-4 3 10-2 4-7 5-3-1-3z" fill="#D7CC1F"/>
<path transform="translate(259,332)" d="m0 0 5 1-1 4-2 6-14 5-15 9-11 7-13 10-1 2-3 1-1 2-3 1-4 4-10 7-3-1-1-8 5-6 12-7 12-8 17-11 9-4h2l1-3 4-1 6 2-1-4-1-3 5-1 5 2-1-3z" fill="#FBFCF3"/>
<path transform="translate(268,452)" d="m0 0h3l-3 9-5 16-2 11v16l3 12 4 6 9 4 3 1-1 3-10-3-6-5-5-10-1-5v-18l3-15 4-11-5 5-12 18-11 20-10 21-3 1-5-18-6-24-3-5-2-20 2-4 6 1-1 6h-2v9l4 16 9 31 2-2 5-12 11-21 7-11 11-14z" fill="#422FA7"/>
<path transform="translate(488,276)" d="m0 0h13v4l-8 4h-2v6l-6-1-3 5-1 4-9-1v5l-6-1-3 1-1 5-6-2-5 1-1 2-10-1-2 5-5-1-6-2v-1h6v-3h-5l-5 3-5-1 2-8h3l1 2h5l4-5 4 1 3 1v2l-5 2h2l5-3 3-5h2l1 5 8-2 1-5 5 1 4 1 2-6h4v2l3-1 5-6 6-2z" fill="#D0C617"/>
<path transform="translate(345,228)" d="m0 0 7 4v3l-3 1-2 6-6 3-1 3 10 1 3-6h3l-1 4-5 8-5 7-3 5-2 1 1-6 4-4-1-4-1-1h-7l-3 5 1 4-6 2-2 7-10 3-3-1 5-5v-4h-6l-5 6-1 4-9 4-3-1 5-8 3-5 7-4 1-4-2-2 8-3 1 4v5l7-2 2-7 6-4 1-7 8-2 3-9z" fill="#D7CC18"/>
<path transform="translate(337,380)" d="m0 0h2v15l7 1v2l4-1 4 2 2-1 2 2-4 4h-2l-2 4-1 3 7-7 6-4 9-8h4l2-4 7-6 1-2h3v2h-2l-2 4-3 2-1 3 6 2 2 5-1 4h-2l-1 3h-6l-3-4 1-5 3-1 2 6 3 1v-7h-9l-5 1v7l3 7v2l-7 1-2-3v-3h2v-2l-7 1-1 4 3 4v4h-5l-2-4h-2l-2 4h-5l-3 1v-7l-1-5h2v-3l-2 1-2-5-7-1v-5l-5-7-3-2v-2l4 1 3 4v2l3-1 2 1v-9z" fill="#F8C1A2"/>
<path transform="translate(428,304)" d="m0 0 5 1v3l-8 2 1 7-4-2-1-3-8 4-7 7-1 4-4 3-1 3-3-1-4-5h2l-3-5v-2l4 2v2l7-1 2-5 3-5-3-1-3 4v3l-5-1-2-2-7 2v6l-6-1-1-3-7 2 1 6h-4l-1-3-10 1v2l-3 2h-5l1 2 2 1-2 2h-7v-5l5-3 9-3v-7l10 1 6-9h2l2 7 7-3 2-5 3 1 16-1h4v2l5-3 9-1z" fill="#D7CC17"/>
<path transform="translate(313,238)" d="m0 0 1 2 4-1-1 3-4 3-3 5-3 6-5 4-3 5-4 3h-2l-2 5-5 5-5 2-3 3 8-1 3 1 1-3 3 1-4 5-1 5-6-1-5 6-8 3-10 3-2 2v-3l-2-1 3-7 6-3-1-5h2l1-2 3 2 5-4 8-10v-2l-4-2v-3l5-1 7 2 5-3h2l2-4 5-4v-10l2-3z" fill="#939003"/>
<path transform="translate(237,330)" d="m0 0h7v4l-3 3-7 4-5 4-30 20-2 2-5 3-1 2h-3v2l-6 1-1-5 3-6 10-10 22-11 6 1-1-2h2v-2h-2l1-3 14-3z" fill="#FCFCF3"/>
<path transform="translate(374,184)" d="m0 0 5 2h5v-2l5 1 5 3v4l-5 3-4-2v7l-3 3h-2l-1-3h-4v6l1 5-4 2h-4l-1 7v4h-8l1 7-2 3h-2l1 5-5 7-2 4-10-1v-4l2-2 4-1 3-6 3-3-4-4 8 1v-7l5-1 2-1v-8l1-2h4l2-5 2-1 1-6h2v-2h-7l-2-3h-2l-2 2-3-3v-2l5-1 7 2 1-6z" fill="#FCFCFB"/>
<path transform="translate(376,418)" d="m0 0 5 1v6l3-1-1 4-6 9-5 4h-11-4l-3-1-3-3-3-1-1-3-3-2-1-5h3v-2h6v4l4-1 1-4 15-4z" fill="#F7B58E"/>
<path transform="translate(292,426)" d="m0 0 4 2 8 1h18l3 1v-2h5l-2 1v11l-1 2h-2l-1 3h-3v2l-8 2h-7l-6-3-6-8v-2h-2z" fill="#F8B492"/>
<path transform="translate(371,299)" d="m0 0 5 2 2 5 3-3 5 1 2 1v-3l4-1-1 7 11-1 3-1 4 2-1 1-16 1h-3l-2 4-3 2h-4l-2-7h-2l-2 4-4 6h-6l-2-2-3 1-2 1-3-2v-3h-2l-1 2v-3l-7 3h-4l-1-6 2-4 6 1 2 1 4-4 6 3 2-5h3l1 2h3l1-4z" fill="#FEFDF2"/>
<path transform="translate(279,156)" d="m0 0h3l1 3h3l2 1v2l-3 1-4 6-8 7-10 11-5 6-3 1-2-3-4-1 1-4 4-5h2l1-5 5-3v-2h2v-2l-8 6-3 1-1-6 9-6 11-6z" fill="#B3AFE0"/>
<path transform="translate(217,273)" d="m0 0h2l-3 9-4 9h-2l-1 5 7 2v1l-8 1-2 4-4 1v3l2 1-5 5-2 6h-2l-2 5-7 10-9 12-4 5h-2v3l-3-1 4-8 13-16 8-12 3-5 2-5h-6v-4l8-1v-2l-6-4v-4l6-2 1-6h2l-2-4v-3h5l1-3 3 1 1 4z" fill="#969304"/>
<path transform="translate(383,260)" d="m0 0 5 1v2l5-3h5l4 2 3-2h3l1 6 5-2 4-4h5l-1 7 6-1 4-3h4l2 11-2 2-6-1v-2l-5 2-1 3-4-2-2-4h2v-3h-7l-1-1-9 1-4-1-26 1-11 2-4-1 2-7h3l2 4 4-2 4-4 6 1z" fill="#D0C615"/>
<path transform="translate(225,309)" d="m0 0 6 1 1 2-2 5-7 5-4 5h-2v-3l-4-2-5 5-1 4h-6l-2 5v4h-7v2h-2v2l-3 3-4 5-5 8-4 2 1-4h2l2-6 2-3h2l1-4 3-4h2l2-6 1-4-3-2 6-9 2 2h6l4-5 1-6 3 1 5-1v3l5-2v2h2v-4z" fill="#D5CA18"/>
<path transform="translate(233,278)" d="m0 0 7 1-2 5-4 6-3 7v3l-3 1-1 2 11-2 7 1-1 4-6 4-4-1-5-3-3-1v-3l-7 2-2 4-5 2-2-2-3 1h2l-2 10-4 4h-6l-1-3 3-7 3-5v-3l4-1 1-4 7-2-6-1 2-6 5 5 7 1 4-1 1-8 5-2h3v-4h-2z" fill="#CAC113"/>
<path transform="translate(235,257)" d="m0 0 6 3 2 4-4 4-1 4h5l-1 4-5 4-4-2v4h2v4l-8 2v8l-5 2-7-1-4-3 1-6 4-7 7-3 5-2 1-3-5-2 2-4 8-1v-8z" fill="#FDFDF3"/>
<path transform="translate(207,481)" d="m0 0h1l-1 8-8 16-7 9-8 8-9 5-9 3-9 1-11-1-9-4-6-4-6-8-1-8 4-8 6-5 5-2h21l7 4v2l-13-3h-11l-8 3-5 5-1 2v9l5 7 11 6 5 1h11l12-3 11-7 7-8 8-13 5-9 2-5z" fill="#422FA7"/>
<path transform="translate(214,231)" d="m0 0 2 3h2l1-2 3 3 3-1 8-1 3 5 1 4 3 2 1 3h2l1 6h-2l-1 2h-5l-3-9-3 1-1 2v11l-6 1h-2l-2 6 1 5-4 2-1-1v-14l2-3h3l-1-5-3-3 1-4 5-2 2-5-8 2-2-1z" fill="#FEFDF3"/>
<path transform="translate(386,346)" d="m0 0 2 2 4-1h4l5 5h6l2-4h2v7l7-3 2-1 5 5 4-2 1-2 5 1 6 4v3l-12-1-1 5-5-1-5-4h-2l-1 3-6 1-2-4-5 1-1 3-3-1-3-5-6-2-3 4-3-1-2-5-7-1 1-2h5z" fill="#D5C919"/>
<path transform="translate(385,192)" d="m0 0 5 2 1-1h5v2h-2v2l-3 3v5l-2 2-6 2-1 7-5 2-3 3v7l-3 3-7 14h-4l1-5 5-10-5 3h-2v-9l5-1 3 1-1-8 2-3 7-2-1-8 1-3 4-1 1 4 4-4v-6z" fill="#D0C616"/>
<path transform="translate(315,149)" d="m0 0h4v2l10 5v3 5l5 1v3l-5 1-14-4-4 1-9-3-9-2-5-2 3-3h3v-2l10-4 1 3h2v-2l7-1z" fill="#B3AFE0"/>
<path transform="translate(340,223)" d="m0 0 4 2 1 4-4 10-8 1v7l-7 5-2 7-6 2-2-1v-9l4-4-1-7 4-4 7-1-2-8 4-3z" fill="#FEFDF4"/>
<path transform="translate(301,340)" d="m0 0 8 1-4 2-2 5v3l11 2 4-1v-2h2v-3h3l-1 4-2 5 7-1 7 3 5 2v-3l7-1-1 7 1 5-5-1-4-2-4 2-5-4-7 1-4-4h-7l-2 3h-3l-1-7-4 1-5 3-1-3 2-2v-3l-4-1-3-4h12l1-5z" fill="#969304"/>
<path transform="translate(292,401)" d="m0 0 9 1 16 8 5 3 2 5-1 2 3-1v3l-5 1-6 1v-11h-3l-2 8-3 2-3-3 1-10-6-5-3-1v2l3 1 3 10-2 6h-4l-8-8v-10z" fill="#F9BFA0"/>
<path transform="translate(254,276)" d="m0 0 5 1 5 5v7l-8 5-3 3-7 1h-3l-7 1-2-1 1-5 3-4 4 2v-9l2-2h3l1 2 3 1 2-6z" fill="#FDFDFC"/>
<path transform="translate(321,215)" d="m0 0 3 1 1 4-3 1 1 5-1 2h-2l-2 4-5 1-1 6-2 2h-4l-2 7-4 4-5-1-2-4 5-5-1-4 7-11 7-2 3-3h3l1-3h2z" fill="#FCFCFC"/>
<path transform="translate(308,303)" d="m0 0 2 1-2 3 5-1 1-2h6v5h4l9-2 4-2h8l4 1v-2l3-1v3h-2l-1 3-5-2h-3l-1 9 8-3 6 1 1 3h3l4-1-2 1v7l-1-3-9 1-6-1-1-3-5-2h-2l-7-1-12-3v-2l-16 1-11 1-3 1 1-3h3l1-2 4-1 8-1z" fill="#D8CD18"/>
<path transform="translate(230,246)" d="m0 0h3l3 6v3h5l1-3 6-2v6l-3 7h-3l-1-3-6-2v8l-5 1-4 1-1 3 4 2-1 4-10 4h-2l1-4 2-7-1-4 3-6h8l-1-11z" fill="#D9CE25"/>
<path transform="translate(288,286)" d="m0 0h2v2h3l1 4-1 4-8 5-2 4-6 3-3 5-8-1v-7l-7-1 1-3 9-3 4-2h4l2-4 3-3 4 1 2 1z" fill="#FCFCFB"/>
<path transform="translate(295,315)" d="m0 0 5 1 2 3h-6l-1 5-5-1-4-1-9 2-2 2-5 1-2 1v8l-5 1v-4h-4l-1 5-7-1-2 1 2 3-1 4-7-2-3 1-3 3-3-1 5-4 6-4 5-4 9-6 8-5 9-4h3v-2l3-1h9z" fill="#D6CB17"/>
<path transform="translate(234,318)" d="m0 0 2 1-1 4 6-2v-3l10 1 6 3-1 2-10 2v3l2 2-2 3-2-1v-2h-7l-1 3-10 2-2-1v-2l-7 3-4 4-6 1 1-3 7-4 3-3 6-2 2-4 3-2h5z" fill="#D6CC17"/>
<path transform="translate(253,371)" d="m0 0 7 1 2 1v6l-4 7h-2l-2 4-6 3-6-1-3-4 1-7 5-6z" fill="#FDFCFB"/>
<path transform="translate(404,311)" d="m0 0h4l1 3-6 9-7 1-4-4v5l-4 3h-9-2l-2 3-6 2-7 4-7-1 2-4 6 1v-6l4-3 4 1v3h4l-2-6 2-2h6l1 2 5 1 1-5 8-3 2 2 4 2v-3l-2-1 3-1z" fill="#FCFBEE"/>
<path transform="translate(448,219)" d="m0 0 3 1v5l6-2 3-3 4 1 2 3 5-1 3-3 4 3-2 5-6 5-4-2-2-2-7 1-2 5h-4l-2-1v-3l-11 1-2-2 1-2 6-2 3-6z" fill="#CEC414"/>
<path transform="translate(237,208)" d="m0 0h3v10l1 4h5l-1 5-1 1v5l4 4-2 3-1 6h6l1 2-4 5v-3l-4 2-2-2 1-3-3 1-1-4-4-4 1-3 2-1v-8h-5v-3l2-1-1-5-1-1v-5z" fill="#D4CA17"/>
<path transform="translate(135,408)" d="m0 0 3 1-2 4h-2v2h-2v2h-2v2h-2l-2 4-14 14-16 12-6 3h-2l2-5 13-11 10-8 11-11h2l2-4 5-4z" fill="#979404"/>
<path transform="translate(343,540)" d="m0 0h2v14l-2 13-4 6h-6l-2-3v-7l4-11 5-9z" fill="#EDEBED"/>
<path transform="translate(213,321)" d="m0 0 4 3-1 4h-2v2h-2l-2 4-11 9-13 12-5 6-2 4-2-1-1-4h2l2-5 3-5 3-3 2-3h2v-2h2v-2h7l-1-5 3-5 6 1 1-6z" fill="#F8FBF4"/>
<path transform="translate(337,380)" d="m0 0h2v15l7 1v2l4-1 4 2 2-1 2 2-4 4h-2l-2 4-5 4-4-1v-4h2v-3l-2 1-2-5-7-1v-5l-5-7-3-2v-2l4 1 3 4v2l3-1 2 1v-9z" fill="#F3EAD2"/>
<path transform="translate(209,457)" d="m0 0 6 1-1 6h-2v9l4 16 9 31 4-2-3 9-3 1-5-18-6-24-3-5-2-20z" fill="#4431A5"/>
<path transform="translate(372,237)" d="m0 0 6 1 5 1h3l-2 4-4 2-4 9h-5l-5-2h-2l2 7-1 1h-11l1-3 2-1-3-2 4-6h2v5l8-5-4-3 7-1z" fill="#D0C615"/>
<path transform="translate(325,181)" d="m0 0 10 2 1 4-6 3-2 2-1 5-5 2-2 4 1 5h-3l-4 1-2 4h2l-1 2-6-1 4-7 2-6-1-5 7-2 1-2-3-1 4-1h2l1-8z" fill="#D5CA19"/>
<path transform="translate(371,272)" d="m0 0 4 1-3 4 1 6 3 2v5l-5-1-3-2h-3l2 5 8 2 1-2 4 1 3 4h-15l-2-3-1 2h-6v-6l5 1-2-3v-3l5-1-7-2-1-6 8-3z" fill="#D8CC1B"/>
<path transform="translate(298,507)" d="m0 0h6l3 3-1 5-2 1-3 6-5 4-4 1-4-4v-8l3-5z" fill="#EEEDEE"/>
<path transform="translate(606,507)" d="m0 0h6l2 1v7l-6 8-5 4-5-2-3-6 4-7 5-4z" fill="#F4F2F0"/>
<path transform="translate(287,323)" d="m0 0 4 1v7l-3 3v-2l-8-1-1 7-3 3-7-3-2-4v-6l5-3 8 1v-2z" fill="#FCFCFA"/>
<path transform="translate(428,304)" d="m0 0 5 1v3l-8 2 1 7-4-2-1-3-8 4-7 7-1 4-4 3-1 3-3-1-4-5h2l-3-5v-2l4 2v2l7-1 2-5 3-5 1-4 3-1v2l5-3 9-1z" fill="#9C9807"/>
<path transform="translate(352,278)" d="m0 0h4l1 6-1 5h-5l-2 2-9 1-3-5 4-4zm1 11 3 1-2 7-4 2h-3l-2-5 3-2h4z" fill="#DACB21"/>
<path transform="translate(149,417)" d="m0 0 2 1-2 5h-2l-1 5-10 16-10 14-5 5-3-1 5-9 7-10 9-14 7-10z" fill="#989305"/>
<path transform="translate(210,300)" d="m0 0h7l3 2-2 5-4 3-4-2-3 1h2l-2 10-4 4h-6l-1-3 3-7 3-5v-3l4-1v-2h4z" fill="#FEFDF3"/>
<path transform="translate(260,208)" d="m0 0 4 2 2 5-6 6v6l2 1v3l-4 3 1 5 1 4-5 4-1-7v-6l-1 5h-1v-14l2-1 1-4-1-6 5-5z" fill="#D8CD18"/>
<path transform="translate(258,208)" d="m0 0 2 1-3 3h-2l1 9-2 4h-2l1 7-1 12-2 2h-5v-6l2-4-4-3v-5l2-5-4-1h3l1-2 2-1 1 2 4-5v-5l5-2z" fill="#FDFDF3"/>
<path transform="translate(307,255)" d="m0 0 4 1-2 5-8 5-4 8-2 3 5-1v2h-2v4l-8 2 2-3h-2l-1 2-12 1 5-6 4-1 6-7 5-5 3-2 3-5z" fill="#D3C916"/>
<path transform="translate(569,479)" d="m0 0h8v8l-2 11-4 10-3 2-1-4v-21z" fill="#F6F6F8"/>
<path transform="translate(418,260)" d="m0 0h5l-1 7 6-1 4-3h4l2 11-2 2-6-1v-2l-5 2-1 3-4-2-2-4h2v-3h-7l-1-3 4-5z" fill="#D6CB17"/>
<path transform="translate(334,343)" d="m0 0h13l3 3-2 2-9 1-1 3-4 1v2l-7 1-5 1-2-1 1-5 3-5 1-2h7z" fill="#D3C819"/>
<path transform="translate(365,217)" d="m0 0 2 3v4h-8l1 7-2 3h-2l1 5-5 7-2 4-10-1v-4l2-2 4-1 3-6 3-3-4-4 8 1v-7l5-1 3-3z" fill="#FEFCF1"/>
<path transform="translate(213,213)" d="m0 0 2 1-1 10 2 2-2 12-1-2-3 1-2-2-5-1-1-1v-5l5 1 3 1-3-6-10-5 1-5 5 1 5 3z" fill="#D5CA17"/>
<path transform="translate(310,313)" d="m0 0 5 1 1 4-1 1h-5l-1 4-3 2-9 1-1 6-6 5-8-4-3 3v-5l5-1 5 3 2-9h-11v2l-3 1-2-2 2-2 12-2 3 2h3l1-4 4-1 4 2v2h3l1-6z" fill="#FEFDF3"/>
<path transform="translate(406,158)" d="m0 0 3 1v3l-1 1 1 9 1-1h7v2h2l1-2-1 4-4-2h-4l-4 7h-4l-2-4v-3l-5-2-3-4 1-3 8-1 2-4z" fill="#FDFDF4"/>
<path transform="translate(436,222)" d="m0 0 3 1 2 5-3 2-1 9h-5l-3-4h-3l-3 4-4-1-1-2 2-9 2-3 4 1 2 3 5-1z" fill="#D1C617"/>
<path transform="translate(203,355)" d="m0 0 4 1v4l-8 5-2 2-5 3-1 2h-3v2l-6 1-1-5 3-6 4-4h7z" fill="#FCFBF9"/>
<path transform="translate(189,330)" d="m0 0h4l-1 5-3 6-5 5-1 3h-2l-2 6-4 4-1 5-5-3 2-9 5-5 10-13z" fill="#F4F7F2"/>
<path transform="translate(197,372)" d="m0 0 1 2 4 2 5-1-4 4-3 1-4 4-10 7-3-1-1-8 5-6 6-2z" fill="#FDF8EB"/>
<path transform="translate(373,144)" d="m0 0h10l1 2-5 14-4 2-4 7h-2v-3h-3l-1-7 3 1 3-1 1-8v-6z" fill="#D5CB17"/>
<path transform="translate(409,307)" d="m0 0 2 1-4 4h-2l-3 4v3l-5-1-2-2-7 2v6l-6-1-1-3h-5l5-4 6-3 2-5 3 1 16-1z" fill="#D6CA18"/>
<path transform="translate(394,331)" d="m0 0 4 1 2 2h-2v2l-2 1h-8v3h2v3l7-1 4 4-4 4-2-3-4 2-4-1-2-4-2-1v2l-5-2v-2h-2l1-4 12-2z" fill="#FEFDF3"/>
<path transform="translate(325,355)" d="m0 0 9 3 5 2v-3l7-1-1 7 1 5-5-1-4-2-4 2-5-4-7 1-4-5 7-3z" fill="#D1C615"/>
<path transform="translate(217,357)" d="m0 0 3 1-1 2 1 5-13 10-6 2-4-4-4 2 1-3 17-11z" fill="#FDFDFC"/>
<path transform="translate(360,326)" d="m0 0 4 1-1 6h-6l-2 3 7 1-2 2-15 1-3-3v2l-9 1 4-8 2-2 7 1v4l7-1-1-1v-3l8-2z" fill="#D7CC17"/>
<path transform="translate(336,252)" d="m0 0h7l3 3-1 4-4 5-2 5-12 1 1-6 5-3-1-3z" fill="#F7F9F1"/>
<path transform="translate(328,332)" d="m0 0 4 1-1 4-4 1v3l10-2h5v-2l2 1 1 1 19-1 5-1 1 2h-5v2l-13 1-6 2h-12l-5 1-7-1 3-9z" fill="#928F03"/>
<path transform="translate(289,278)" d="m0 0m-1 1m-1 1m-1 1m4-1 3 1-4 5-1 5-6-1-5 6-8 3-7 1 4-3 1-4 4-2 1-4 4-3 10-2 3 1z" fill="#CFC518"/>
<path transform="translate(357,259)" d="m0 0h9l1 3 2 4-4 2-2-5h-3v6l-7 6-10 2 1-4 2-4 3 1 1-5 4-5z" fill="#FDFDF9"/>
<path transform="translate(315,251)" d="m0 0 2 4v5 3l-6 2-4 5-1 4-9 4-3-1 5-8 3-5 7-4 1-4-2-2z" fill="#CCC314"/>
<path transform="translate(385,380)" d="m0 0h3v2h-2l-2 4-3 2-1 3 6 2 2 5-1 4h-2l-1 3h-6l-3-4 1-5 3-1 2 6 3 1v-7h-9l-5 1-1 7-1-3-4-1 7-7h4l2-4 7-6z" fill="#FACCB1"/>
<path transform="translate(223,302)" d="m0 0h3v3l6 1 3 3h5v3l-3 3-5 2-4 2 3-7-2-2h-6v4h-2v-2l-5 2-1-2-5 1-4-5 4-1 4 2 7-6z" fill="#A39E07"/>
<path transform="translate(160,424)" d="m0 0h2l-1 12-2 11-8 16-6 9-3 3h-2l1-4 14-27 4-11z" fill="#979304"/>
<path transform="translate(321,401)" d="m0 0h7l3 2v9l2 1 2 6v13l-5 5-1 2h-2l1-10h2v-2h4l-3-6-3-2v-6l-4-2 3-1-4-6-3-1z" fill="#F9C2A3"/>
<path transform="translate(201,228)" d="m0 0h1l1 5 6 1 3 7-6 9-3 1-3-2-1-8 1-8h-6l-7-2v-1l13 1z" fill="#FEFDF2"/>
<path transform="translate(243,274)" d="m0 0 3 1-1 4-2 3v10l-5-2-4 8h9l1-2 2 1-2 4-11 2h-6l1-3 3-1v-3l4-9 4-7 2-4z" fill="#939103"/>
<path transform="translate(221,333)" d="m0 0h3v2h2v2l-4 1-1 2h2l-1 5-6-1-12 6-5-1 2-5 6-4 6-1 5-5z" fill="#A29D08"/>
<path transform="translate(376,285)" d="m0 0 4 1v2h2l1 2 6 1v-2l5 2 2 3v3l-3 1v-3h-5l-1 3-4-1-4-4-3-1-1 3-4-1-5-2-1-5 4-1 3 3 4 1z" fill="#FFFEF3"/>
<path transform="translate(307,409)" d="m0 0h8l7 4 2 5-1 2 3-1v3l-5 1-6 1v-11h-3l-2 8-3 2-3-3 2-5z" fill="#FCE7D3"/>
<path transform="translate(215,461)" d="m0 0 2 1 4 13v7l-5 5-3-4-2-13 1-6h2z" fill="#D6CA1A"/>
<path transform="translate(433,296)" d="m0 0 4 1 3 1v2l-5 2 1 1h5v3l-3 6-5-1-6-2v-1h6v-3h-5l-5 3-5-1 2-8h3l1 2h5z" fill="#CEC415"/>
<path transform="translate(332,270)" d="m0 0 5 1-3 6h-2v-2l-5 1 1 3-5 1-1 2 4-2 3 1-1 4-15 9h-3l1-3 3-3h3l1-5 6-10z" fill="#FFFEF3"/>
<path transform="translate(187,231)" d="m0 0 7 1 6 1v13l3 6v3l-3 3h-5l4-2v-5l-4-1-3-3v-3l2-1v-5l-8-4z" fill="#C9C013"/>
<path transform="translate(290,160)" d="m0 0 5 1 5 4 1 3-5-1-1 4-4 1-5-1-2 4-4-1 1-7 4-5z" fill="#F9C3A5"/>
<path transform="translate(258,244)" d="m0 0 2 3 1 6 5 6 2 1-1 2-4-1-1 4-4 4-5-3v-2h-2l1-5 6-4-3-3v-5z" fill="#FFFEF3"/>
<path transform="translate(385,378)" d="m0 0m-2 1h2l-1 4-8 7-1 2-5 2-3 1-1 3-8 6-8 7h-3l5-7 8-7 11-10 10-7z" fill="#F9350C"/>
<path transform="translate(234,347)" d="m0 0 4 1 3 1-1 3-13 8-7 4-1-4-2-1 6-6z" fill="#F5F9F5"/>
<path transform="translate(197,314)" d="m0 0 1 4-1 2h-2l-2 5-7 10-9 12-4 5h-2v3l-3-1 4-8 13-16 8-12z" fill="#9B9205"/>
<path transform="translate(321,215)" d="m0 0 3 1 1 4-3 1 1 5-1 2h-2l-2 4-5 1-1 6-3-4 2-7-8 2 1-3 7-2 3-3h3l1-3h2z" fill="#FCFCFA"/>
<path transform="translate(174,407)" d="m0 0 7 1 2 3-3 3h-3l-3 6 3 10v6l-2-2v-6l-4-1-1-3h-2l-1-7 3-6 3-1 3 2-3-4z" fill="#FEF8EB"/>
<path transform="translate(237,208)" d="m0 0h3v10l1 4h5l-1 4-4 1 2 9h-3v-6h-2v-2h-5v-3l2-1-1-5-1-1v-5z" fill="#B9B012"/>
<path transform="translate(365,340)" d="m0 0h7l8 5v2l-9 2-3-3v-2l-4 2v2l-2 1h-6l-1-7z" fill="#FDFCF8"/>
<path transform="translate(225,309)" d="m0 0 6 1 1 2-2 5-8 6h-5l-1-3-2-1 3-5 4-2v2h2v-4z" fill="#F4F9F3"/>
<path transform="translate(333,288)" d="m0 0 3 1 1 5-6 7-4 2-11-2v-3h2v-2l11-2 1-4z" fill="#FEFDF3"/>
<path transform="translate(266,341)" d="m0 0 6 1 9 3-4 1v4l-4 1-3-3h-5v6l-5 1-3-4-5-1 4-2 5-2 3-2z" fill="#CFC515"/>
<path transform="translate(254,276)" d="m0 0 5 1-4 1-2 6h-3l-1 4-4-1v8l-2 3-7 1-2-1 1-5 3-4 4 2v-9l2-2h3l1 2 3 1 2-6z" fill="#FEFDF4"/>
<path transform="translate(192,340)" d="m0 0 6 1-1 4-10 9-6 7-2 4-2-1-1-4h2l2-5 3-5 3-3 2-3h2v-2h2z" fill="#F2F4F6"/>
<path transform="translate(219,279)" d="m0 0 4 1-1 2h-2l1 3 3-3 4 4-5 4-5 2-2 4-4-1-1-4 5-10z" fill="#FCFCFB"/>
<path transform="translate(353,304)" d="m0 0 5 4v3l-10 3-4 2h-4l-1-6 2-4 6 1 2 1z" fill="#FDFDF9"/>
<path transform="translate(383,192)" d="m0 0 2 1v7l-3 3h-2l-1-3h-4v6l1 5-4 2h-4l-2 4-2 2-1-6 1-2h4l2-5 2-1 1-6 8-2 1-4z" fill="#FEFDF3"/>
<path transform="translate(142,410)" d="m0 0 1 2-3 4h-2l-1 5-3 4h-2v2l-8 7-10 8-2-1 7-8z" fill="#8D8A08"/>
<path transform="translate(157,420)" d="m0 0 1 3-2 3-2 7-1 2h-2l-1 6-6 11h-2v2h-2l1-5 10-21 3-7z" fill="#9B961A"/>
<path transform="translate(337,399)" d="m0 0 4 2 4 4-2 3-2-1v3l-3 2-5-1-2-1-1-7-2-2 1-1z" fill="#A5A008"/>
<path transform="translate(157,350)" d="m0 0h5l5 4 4 2-1 6-5 3-3 4-3-1 3-1-2-1 1-7-4-5z" fill="#E0C434"/>
<path transform="translate(411,226)" d="m0 0 3 1 1 3 5 2-1 4-5 2-2 4-4-1-1-3-5-2 5-4z" fill="#C4BB12"/>
<path transform="translate(308,303)" d="m0 0 2 1-2 3 5-1 1-2h6v7l-3 1v-2l-16 1-11 1-3 1 1-3h3l1-2 4-1 8-1z" fill="#ECEBEB"/>
<path transform="translate(312,263)" d="m0 0h6l1 5-6 4v6l-5 1-4-2v-3h2l1-5z" fill="#F2F8F3"/>
<path transform="translate(402,237)" d="m0 0h5l2 5-6 1-1-2-1 7-5 2-12-1-5-2 1-3 3-1 2 1v4h5l1-5 8 1 2-6z" fill="#FEFDF3"/>
<path transform="translate(386,171)" d="m0 0 7 1 2 2 1 5 3 1 1 5-3 3h-2l-3-7-7-3-2-1 1-5z" fill="#F3F7F2"/>
<path transform="translate(196,328)" d="m0 0 2 1v3l-4 4 4-1 1 5h-7v2h-2v2l-3 3-4 5-5 8-4 2 1-4h2l2-6 2-3h2l1-4 3-4h2l2-6z" fill="#969304"/>
<path transform="translate(237,330)" d="m0 0h7v4l-3 3-7 4-3 3-3-1 1-1-4-2 1-4 10-2z" fill="#F3F7F3"/>
<path transform="translate(358,276)" d="m0 0 2 2 1 4 8 2-4 2-3-1 2 6h-4l-1 5h7v1l-9 1-2-2v-7l1-8-1-4z" fill="#C7BE14"/>
<path transform="translate(137,410)" d="m0 0 4 1-6 7-20 20-5 2v-3l8-7 9-9 1-2h2v-2h2v-2h2v-2h2z" fill="#FEFDF4"/>
<path transform="translate(385,192)" d="m0 0 5 2 1-1h5v2h-2v2l-3 3v5l-2 2-9 2 1-5 2-1 1-9z" fill="#928F03"/>
<path transform="translate(360,317)" d="m0 0 4 1 2 2-1 2v4h-5v2l-3 2h-5l1 2 2 1-2 2h-7v-5l5-3 9-3z" fill="#989505"/>
<path transform="translate(275,269)" d="m0 0 1 3-3 1-2 11-4-1-5-5 2-7h7z" fill="#FEFDF4"/>
<path transform="translate(286,170)" d="m0 0 9 1v2h-2l3 5 6 4-1 2-8 2-4 2 2-6v-5l-8-2z" fill="#FBD4BB"/>
<path transform="translate(160,401)" d="m0 0 3 1 2 3 7 2v2l4 1v2l-4-1-3 3-1 4v6l3-1-1 9h-1v-7h-2l-2-8v-4h-2l-1-4v-3z" fill="#F9B997"/>
<path transform="translate(208,309)" d="m0 0 1 2-2 8-4 4h-6l-1-3 3-7 2-3z" fill="#F3F6F0"/>
<path transform="translate(206,284)" d="m0 0h2l-1 7-2 9-2 4-3-1v-2l-6-4v-4l7-2 2 1 2-6z" fill="#D4CD43"/>
<path transform="translate(260,208)" d="m0 0 4 2 2 5-10 11h-2l1-6-1-6 5-5z" fill="#D3C916"/>
<path transform="translate(381,157)" d="m0 0 5 1 1 6-5 1-2 4-3 3-5-5 2-5 3-2h3z" fill="#F5FAF4"/>
<path transform="translate(148,388)" d="m0 0 2 1-2 6-5 1-3 6h-2v6l-5 1 3-7-4-2v-4l4-2 6 1v-2h3z" fill="#E1A61B"/>
<path transform="translate(337,351)" d="m0 0h11l5 3 1 4-3-1v-2l-4 1-1 3v-3l-7 1v3l-5-1-4-3 4-1v-2z" fill="#FCFDF3"/>
<path transform="translate(305,344)" d="m0 0 3 1 3 2 1-1v-2l6 1 1 5-1 2-5 2-10-2-1-4z" fill="#F5F5F1"/>
<path transform="translate(388,295)" d="m0 0h5l-1 6-4 1v3l-7-1-3 3-3-6-3-2 9-1 2 1 1-2h3z" fill="#D5C920"/>
<path transform="translate(508,507)" d="m0 0h5l1 1-1 8-3 3 2 2-5 2-3-5v-6z" fill="#E4E2EA"/>
<path transform="translate(152,417)" d="m0 0 4 2v2l-2 1-2 6-5 10-5 1 1-4 2-4 2-8 2-2z" fill="#F2F7F4"/>
<path transform="translate(246,228)" d="m0 0 6 2v14l-2 2h-5v-6l2-4-3-6z" fill="#FDFDF9"/>
<path transform="translate(178,345)" d="m0 0 1 2h3l-2 5-3 6-2 1-1 5-5-3 2-9 5-5z" fill="#F7F1EF"/>
<path transform="translate(436,222)" d="m0 0 3 1 2 5-3 2-1 9h-5l-4-6 3-1 1-4z" fill="#D5CB17"/>
<path transform="translate(158,422)" d="m0 0 4 2h-2v9l-4 10-2-2-2 1-1-7 1-2h2l2-9z" fill="#EAEAEB"/>
<path transform="translate(262,463)" d="m0 0h2l-3 11-2 8-2-4-5 5h-2l-1 3h-2l2-5 12-17z" fill="#DDDCE6"/>
<path transform="translate(362,285)" d="m0 0h6v2h-3l2 5 8 2 1-2 4 1 3 4h-15l-2-3-1 2h-6v-6l5 1-2-3z" fill="#D5CB17"/>
<path transform="translate(375,272)" d="m0 0h6l4 4 2-4 5 1 4 6-1 2-10-1-9-5z" fill="#FEFDF3"/>
<path transform="translate(354,242)" d="m0 0 2 1-1 4-5 8-5 7-3 5-2 1 1-6 4-4-1-4-6-2v-1l12-2 3-6z" fill="#D8CD18"/>
<path transform="translate(291,215)" d="m0 0h12l-1 2h-6l1 3-3 8-2 4-4-1-1-4h2l2-5v-2h-2l1-4z" fill="#FEFCF2"/>
<path transform="translate(613,508)" d="m0 0h1v7l-6 8-5 4-5-2-2-5 7 1 3-1 2-5 4-4z" fill="#ECECF4"/>
<path transform="translate(418,312)" d="m0 0h3l5 5 1-2 1 3-3 3-8 1 1-6h-2l-1 4-4 2h-3l1-4z" fill="#FEF9ED"/>
<path transform="translate(569,479)" d="m0 0h8v8l-4-1-1-3-1 2v10h-3v11h-1v-21z" fill="#E0DEE9"/>
<path transform="translate(294,430)" d="m0 0 4 1 2 3-1 7h3v-2h2v-7l4 1-1 7-3 2h-7l-4-6v-5z" fill="#F9350C"/>
<path transform="translate(349,512)" d="m0 0 1 2h2l2 5 3-3 1 3 2 1-9 9-3-1v-9z" fill="#EBEAED"/>
<path transform="translate(238,301)" d="m0 0 7 1-1 4-6 4-4-1-5-3-3-2 4-2z" fill="#F3F9F3"/>
<path transform="translate(361,307)" d="m0 0h7l1 5 2 1-1 4-2 2-5-1-2-2-2-4 1-4z" fill="#FDFDFC"/>
<path transform="translate(397,163)" d="m0 0 4 1 6 1-1 5-2 4-7-2-4-5 1-3z" fill="#FDFDFB"/>
<path transform="translate(151,391)" d="m0 0 3 1v2h-2v2l4 1 1 4-5-1-1-2-6 2-3 4-3 5-2-4 1-3h2l3-6 6-1z" fill="#E0DAE1"/>
<path transform="translate(348,313)" d="m0 0 6 1 1 3h3l4-1-2 1v7l-1-3-9 1-6-1-1-3z" fill="#CCC214"/>
<path transform="translate(254,305)" d="m0 0 8 1v3l-1 1h-6l-1-1-3 7-3 2h-6v-3l4-1 2-5z" fill="#FEFCF1"/>
<path transform="translate(229,323)" d="m0 0 5 1v3l-10 4-3 3-5 3-3 3-6 1 1-3 7-4 3-3 6-2 2-4z" fill="#FDFCF2"/>
<path transform="translate(358,248)" d="m0 0h2v5l4-3h2v2h-2l2 7-1 1h-11l1-3 2-1-3-2z" fill="#E0D84F"/>
<path transform="translate(210,291)" d="m0 0 5 5 7 1 4 1v2l4-3 2 2-4 2-2 3v-2l-6 2-3-3-7-1v2l-4-1 2-2 6-1-6-1z" fill="#D8CD18"/>
<path transform="translate(372,228)" d="m0 0 3 1-1 6 2 2h-4v7l-1 1h-7l2-6z" fill="#FCFCF4"/>
<path transform="translate(325,344)" d="m0 0 3 1 2 3-1 1 2 1-1 6h-5l-3 1-2-1 1-5 3-5z" fill="#FCFAF1"/>
<path transform="translate(307,255)" d="m0 0 4 1-2 5-8 5-3 5-3 1-1-4 6-5 3-5z" fill="#FDFCF2"/>
<path transform="translate(277,266)" d="m0 0 6 3-2 4-9 11-1-4 1-4 1-3 2-1 1-5z" fill="#D8CD18"/>
<path transform="translate(182,398)" d="m0 0 4 1v2l3 1 3 4-1 5h-3l-7-8-1-4z" fill="#FDF3E8"/>
<path transform="translate(288,344)" d="m0 0 2 1 3 6h4l-1 5-2-2h-5l-5 2-1-8-2-2z" fill="#D6C91D"/>
<path transform="translate(317,296)" d="m0 0 1 2h-2v3l8 1 3 2-7 3v-3h-6l-1 3h-5v-4l5-4z" fill="#D8CD18"/>
<path transform="translate(336,215)" d="m0 0 4 5v4l-11 1-4 1 4-7 4-3z" fill="#979404"/>
<path transform="translate(425,349)" d="m0 0h10l8 7-1 5h-9l-4-2h12l-2-3-5-3-4 1-2 1v-2l-3-1z" fill="#FEFCF0"/>
<path transform="translate(235,257)" d="m0 0 6 3 2 4-4 3-4-1-1-8zm-1 9m-4 0 4 1 2 2-4 2-4-1-2-1v-2z" fill="#F8FBF4"/>
<path transform="translate(380,336)" d="m0 0h6l3 10h-3l-3-3v2l-5-2v-2h-2l1-4z" fill="#FDFBF7"/>
<path transform="translate(233,292)" d="m0 0 3 1-2 5h9l1-2 2 1-2 4-11 2h-6l1-3 3-1v-3z" fill="#A5A008"/>
<path transform="translate(336,252)" d="m0 0h7l3 3-1 4-3 2v-2l-3-1-2-1-1 3-3 1-1-3z" fill="#FCFCF8"/>
<path transform="translate(318,240)" d="m0 0 2 4v4l-5 4-6 1v-2l-2-1 4-2 3-5z" fill="#DFD641"/>
<path transform="translate(363,399)" d="m0 0 5 1v3l3 1 2 8-7 1-2-3v-3l2-1v-2l-3-3z" fill="#F9BF9F"/>
<path transform="translate(332,255)" d="m0 0 1 3 1 4-6 2-2 7-10 3-3-1 5-5h5l4-6z" fill="#929003"/>
<path transform="translate(367,273)" d="m0 0 2 1v6l-2 3h-6l-2-7z" fill="#FBFBF2"/>
<path transform="translate(298,242)" d="m0 0h6l-1 7-3 3-5-1-2-4z" fill="#F2F8F3"/>
<path transform="translate(320,347)" d="m0 0h3l-1 4-2 5h2l-1 3h-9v-4l-2-1 5-2h3v-2h2z" fill="#9B9705"/>
<path transform="translate(430,352)" d="m0 0 5 1 6 4v3l-12-1-1 2-1-2z" fill="#D5CB17"/>
<path transform="translate(404,311)" d="m0 0h4l1 3-6 9-7 1-1-4 3-2 4 1v-3l-2-1 3-1z" fill="#FDFDF5"/>
<path transform="translate(253,304)" d="m0 0v3l-5 3-2 5h-4l-1 6-3 2h-3l1-5 5-5z" fill="#D8CD18"/>
<path transform="translate(203,257)" d="m0 0 7 6 1 5-4 1 1 6-3 1-1-6-1-3h2z" fill="#FDFAEF"/>
<path transform="translate(213,321)" d="m0 0 4 3-1 4h-2v2h-2l-2 4-4 2-1-3 3-1 1-8z" fill="#F6FAF3"/>
<path transform="translate(353,321)" d="m0 0h6l-1 4-1 1h-7l-2-1-1 3-6-1 4-5z" fill="#FCFCFB"/>
<path transform="translate(226,305)" d="m0 0 6 1 3 3h5v3l-3 3-5 2-4 2 3-7-3-4v-2z" fill="#D4C71F"/>
<path transform="translate(250,261)" d="m0 0 1 3h2v2l4 1 5 2 1 2-9 1v2h-5l1-4 2-1v-2h-2l-1-4z" fill="#B8B10E"/>
<path transform="translate(413,258)" d="m0 0h8l3 1v6l4 1-3 2-3-1 1-7-7 1-2 4-5 1-1-6-3-1h4v3h4z" fill="#FFFEF3"/>
<path transform="translate(474,220)" d="m0 0 4 3-2 5-6 5-2-1 1-4h-2l-1-3 5-2z" fill="#D8CD18"/>
<path transform="translate(315,197)" d="m0 0 3 4v2h2l1 5h-3l-4 1-2 4h2l-1 2-6-1 4-7 1-3h3l-1-6z" fill="#A09A0C"/>
<path transform="translate(377,395)" d="m0 0h2l2 6 3 1v-5l4 1-1 4h-2l-1 3h-6l-3-4 1-5z" fill="#F9BE9E"/>
<path transform="translate(424,328)" d="m0 0 4 1 1 3h3l1-2h5l2 6h-7v-2l-6 1-3-3-3-2z" fill="#FCFBF0"/>
<path transform="translate(377,420)" d="m0 0 2 1-3 4-3 6-7-1-5-1 1-3 7-1z" fill="#F9350C"/>
<path transform="translate(383,305)" d="m0 0 4 1 1 7-4 3h-4v-9z" fill="#FCFCFB"/>
<path transform="translate(307,409)" d="m0 0h6l-3 12-3 2-3-3 2-5z" fill="#FEFAEE"/>
<path transform="translate(360,326)" d="m0 0 4 1-1 6h-6-4l-1-3 8-2zm-7 8m-5 1h5v3l-6 1-1-3z" fill="#E2DA55"/>
<path transform="translate(337,380)" d="m0 0h2v13l-2 2-9-6-4-4v-2l4 1 3 4v2l3-1 2 1v-9z" fill="#CDBB60"/>
<path transform="translate(177,390)" d="m0 0 3 1 1 3-8 8-4 1 1-4-2-2 6-4z" fill="#FEF9EC"/>
<path transform="translate(192,304)" d="m0 0h10v4l2 1-5 5-3-1 2-5h-6z" fill="#9A9705"/>
<path transform="translate(168,362)" d="m0 0h2l-1 10-4 2-4-2 1-4 4-5z" fill="#F3E9DE"/>
<path transform="translate(448,219)" d="m0 0 3 1-1 3-4 1 1 6-3 2h-6l-2-2 1-2 6-2 3-6z" fill="#9A9705"/>
<path transform="translate(321,401)" d="m0 0h7l3 2v8l-2 1-3-2-3-6-3-1z" fill="#FBF4E9"/>
<path transform="translate(350,265)" d="m0 0h1l2 6 2 1v2l-10 3h-2l1-4 2-4 3 1z" fill="#E4DC5E"/>
<path transform="translate(301,232)" d="m0 0 3 4 1 4 4-1 1 2h-4l-2 7h-1v-5l-6-2 1-5z" fill="#FDFCF2"/>
<path transform="translate(167,495)" d="m0 0 2 2-1 2 2 1-7 11-4 4-4-1 8-9 3-5z" fill="#DEB926"/>
<path transform="translate(296,406)" d="m0 0 3 1 3 10-2 6h-4l-2-5 4-1-2-6z" fill="#FAC7AA"/>
<path transform="translate(406,346)" d="m0 0h6v2l2 1h-2l1 2 3-2h5l4 5-2 1-3-3-5 3h-4l-1-5 1-2-4 2z" fill="#FEFCF1"/>
<path transform="translate(262,315)" d="m0 0h7l-1 4-10 5-2-4v-3z" fill="#FEFDF3"/>
<path transform="translate(352,278)" d="m0 0h4l1 6-2 3-5-1-4-5z" fill="#FCFCF5"/>
<path transform="translate(291,272)" d="m0 0 2 1-1 4-8 6-7 1 5-6 4-1z" fill="#FCFCF2"/>
<path transform="translate(440,318)" d="m0 0 3 1v6h3l1-2 7 2 1 2 7 1v1l-6 2h-4l-1-3h2l-1-2-8 2-2-2-1-5-3-2z" fill="#FEFBF0"/>
<path transform="translate(391,301)" d="m0 0 1 3-1 4 11-1 3-1 4 2-1 1-16 1h-3l-2-1v-3h-2l1-2 2 1v-3z" fill="#FFFEF3"/>
<path transform="translate(332,270)" d="m0 0 5 1-3 6h-2v-2l-6 3-4-1 2-4z" fill="#F9FBF3"/>
<path transform="translate(208,472)" d="m0 0h1l2 12 2 2 1 7-5-2-4 3 1-5 1-9z" fill="#DAD4D6"/>
<path transform="translate(259,346)" d="m0 0h6v8l-5 1-3-4-5-1 4-2z" fill="#D8CD18"/>
<path transform="translate(259,332)" d="m0 0 5 1-1 4-3 1v2l-10 1-2-4 5-1 5 2-1-3z" fill="#FEFCF2"/>
<path transform="translate(375,320)" d="m0 0h6l1 2 6 2-1 3h-7l-6-2-1-3z" fill="#F9FAF7"/>
<path transform="translate(293,122)" d="m0 0 2 1 1 7 3 1-8 7-4-4v-1l5-1v-9z" fill="#E5B699"/>
<path transform="translate(150,359)" d="m0 0 4 2 1 2-6-1 2 4 1 3 4 1v2l-4 1-5-5-1-8z" fill="#FEFDF3"/>
<path transform="translate(357,341)" d="m0 0h7l-1 7-1 1h-6l-1-7z" fill="#FAFBF8"/>
<path transform="translate(303,287)" d="m0 0 1 3-2 2h-6l-1 6-7 2-5 4 2-4 6-4h2v-7h8z" fill="#FEFCF1"/>
<path transform="translate(290,252)" d="m0 0 4 1v5l-4 1 1 4-4 2h-3l2-4z" fill="#F7F9F2"/>
<path transform="translate(232,213)" d="m0 0h1l2 6 1 5-3 1v3h5v2l-4 2v-2l-2-1-3-12h2z" fill="#FBFCF3"/>
<path transform="translate(145,408)" d="m0 0 4 5 2 3-4 2h-7l-2 1v-3l4-4z" fill="#E1D9D9"/>
<path transform="translate(395,315)" d="m0 0 3 2-4 4-2-1v5l-5 2 1-9z" fill="#F9F9EC"/>
<path transform="translate(207,269)" d="m0 0 2 1 1 2 5-3 2 6-5 5h-3l1-4h-2v-3l-2-1z" fill="#DFD85A"/>
<path transform="translate(297,162)" d="m0 0 8 1 3 2h-2l-1 3-5 2-2-1-1 5-2-1 1-6h4z" fill="#FEFDF3"/>
<path transform="translate(293,406)" d="m0 0h3l3 11-5 1-2-4-1-6z" fill="#F9350C"/>
<path transform="translate(184,351)" d="m0 0 4 1-6 8-3 5-2-1-1-4h2l2-5z" fill="#FCFBF1"/>
<path transform="translate(428,316)" d="m0 0h3l-1 6 5 4-2 1-9-1v-5l3-1z" fill="#9A9605"/>
<path transform="translate(355,290)" d="m0 0 1 2-2 5-4 2h-3l-2-5 7-3z" fill="#F8FBF3"/>
<path transform="translate(412,272)" d="m0 0h6v4l-5 1-2 4-5-1 1-4 2 2z" fill="#FFFEF3"/>
<path transform="translate(292,236)" d="m0 0h2l2 4 3 2-8 4-3 3-1-4 3-6h2z" fill="#999505"/>
<path transform="translate(362,400)" d="m0 0 2 1v2l3 1-1 2h-7l-1 5-4-1-1-3 5-4z" fill="#F9BC9B"/>
<path transform="translate(290,162)" d="m0 0 2 1 3 6-1 3-5-1-3-3-1-3z" fill="#F9350C"/>
<path transform="translate(198,386)" d="m0 0h1l1 6-7 1v5l2 4-5-5-1-5 7-4h2z" fill="#FEFCF1"/>
<path transform="translate(328,332)" d="m0 0 4 1-1 4-4 1v3l2 1-1 2h-6l3-9z" fill="#A6A108"/>
<path transform="translate(357,259)" d="m0 0h9l1 3 2 4-4 2-2-5h-3l-1 2-2-3h-3v-2z" fill="#FFFEF3"/>
<path transform="translate(338,562)" d="m0 0 3 1 1 6-2 3h-5l-1-3h2v-6z" fill="#F7F7FA"/>
<path transform="translate(330,427)" d="m0 0h5v5l-5 5-1 2h-2l1-10h2z" fill="#FEF9EC"/>
<path transform="translate(358,182)" d="m0 0 3 1v3l3 1-5 1-1 3h-4l-1-6z" fill="#9C970A"/>
<path transform="translate(309,353)" d="m0 0 4 1-1 5-4 4h-3l-1-7-2-1 4 1z" fill="#CBC114"/>
<path transform="translate(286,170)" d="m0 0 9 1v2h-2l2 5-12-3z" fill="#FDE8D6"/>
<path transform="translate(568,495)" d="m0 0h2l1 5 1-2h2l-2 8-4 4z" fill="#F1F0EF"/>
<path transform="translate(178,372)" d="m0 0h2l2 6-5 5h-6l6-9z" fill="#FDF2E3"/>
<path transform="translate(248,324)" d="m0 0h10l-4 4-4 2-5-1 1-4z" fill="#F4F7F2"/>
<path transform="translate(358,309)" d="m0 0 3 2v5l-2 2-2 1-3-2v-3h-2l-1 2 1-4 6-1z" fill="#FFFEF3"/>
<path transform="translate(258,283)" d="m0 0 2 1-2 5 5-1 1-2-1 4-6 3-4 4-2-1 2-5z" fill="#FFFEF3"/>
<path transform="translate(423,222)" d="m0 0 3 1-1 2h-3l-3 7-5-2v-3l-2-1 3-2h5z" fill="#FEFCF2"/>
<path transform="translate(391,178)" d="m0 0 5 1 3 1 1 5-3 3h-2l-3-7-2-2z" fill="#FEFCF1"/>
<path transform="translate(216,281)" d="m0 0 3 1-1 6h-3l-1 2h2l-1 6-4-2 1-6z" fill="#FFFEF3"/>
<path transform="translate(330,275)" d="m0 0h2v2l2 1-1 5-4 1v-3l-7 1 1-3 4-1v-2z" fill="#CFC515"/>
<path transform="translate(307,205)" d="m0 0h5l-2 6-3 3h-3v-7z" fill="#D8CD18"/>
<path transform="translate(383,343)" d="m0 0 3 1v3l-6 4h-7l-1-3 8-1-1-3 4 1z" fill="#A29E07"/>
<path transform="translate(335,262)" d="m0 0h6l-2 7h-7l-1-3z" fill="#FFFEF3"/>
<path transform="translate(315,207)" d="m0 0 4 1 2 3v3l-5 1-4-2 1-4z" fill="#FDFDF6"/>
<path transform="translate(330,189)" d="m0 0 1 2v4l-1 3-5 4-6 1 2-4 4-2 2-2v-5z" fill="#FAFCF3"/>
<path transform="translate(152,417)" d="m0 0 4 2v2l-2 1-2 6h-4l-1-5 2-2z" fill="#F7F2EA"/>
<path transform="translate(310,341)" d="m0 0h10l1 2-2 1h-7v2l2 1-3 1-4-2 1-3h2z" fill="#A49F08"/>
<path transform="translate(301,340)" d="m0 0 8 1-4 2-2 5v4l-5-1-1-3 4-1 1-5z" fill="#AFA710"/>
<path transform="translate(212,301)" d="m0 0 7 2-1 4-4 3-3-1v-7z" fill="#F1F6F5"/>
<path transform="translate(314,263)" d="m0 0 5 1-1 5-4 2h-3l-1-3z" fill="#EFF4F2"/>
<path transform="translate(202,228)" d="m0 0 10 2-1 4-6 1-3-2z" fill="#A6A108"/>
<path transform="translate(310,226)" d="m0 0h4l1 5-2 2-1 6-3-4 2-7-8 2 1-3z" fill="#FEFBEF"/>
<path transform="translate(449,325)" d="m0 0 4 1v2h-2l2 3 3 1v2l-3 1-6-3-3-3 5-3z" fill="#B4A90C"/>
<path transform="translate(264,287)" d="m0 0 1 3-5 3h-2l-1 6-3 3h-4l1-3 3-1v-3l6-5 3-1z" fill="#D6CB17"/>
<path transform="translate(400,272)" d="m0 0 5 1 1 3-1 2-6 1h-3l2-6z" fill="#FFFEF3"/>
<path transform="translate(415,236)" d="m0 0 4 1 4 3-5 2-6 2-3-2h3l2-5z" fill="#FFFEF3"/>
<path transform="translate(325,442)" d="m0 0 3 3-1 7-4 6h-2l2-5 1-7-3 1v-2l3-1z" fill="#AFA5B1"/>
<path transform="translate(143,396)" d="m0 0h5v2l-5 4-3 6-2 1-1-5 1-2h2l2-4z" fill="#F7BC95"/>
<path transform="translate(342,343)" d="m0 0 7 1 1 3-9 2h-2l-1-4z" fill="#F1F2EF"/>
<path transform="translate(348,325)" d="m0 0 7 1-4 2-5 3h-8l1-4 2-1 6 1z" fill="#FEFBF0"/>
<path transform="translate(209,249)" d="m0 0h2l1 7-4 2-3-3v-4z" fill="#FCFCF4"/>
<path transform="translate(371,392)" d="m0 0h7l1 2-5 2h-4l-1 7-1-3-4-1 5-5z" fill="#F9BC9B"/>
<path transform="translate(367,320)" d="m0 0h6l2 5v3h-4l-1-3h-5v-4z" fill="#C4BB12"/>
<path transform="translate(219,312)" d="m0 0h2v2l2 1h-4v4l3 1v3h-5l-1-3-2-1 3-5z" fill="#FEFDF3"/>
<path transform="translate(343,294)" d="m0 0h2l2 5-8 3h-5l4-4h2l1-3z" fill="#D8CE1C"/>
<path transform="translate(202,281)" d="m0 0 8 2-2 4v-3h-2l-3 10-2-2v-7h2z" fill="#B79F0E"/>
<path transform="translate(325,280)" d="m0 0 4 1-1 4-5 3-5-1 1-3z" fill="#F6F8F1"/>
<path transform="translate(400,195)" d="m0 0 2 1-4 1-2 5-5 3-1-5 4-4z" fill="#FFFEF3"/>
<path transform="translate(279,124)" d="m0 0 4 1v4 2l-6-1-1 6-3-1 1-4 3-6z" fill="#B2AEDE"/>
<path transform="translate(158,377)" d="m0 0 3 1-2 6-3 3-4-4 1-3z" fill="#FBEEDF"/>
<path transform="translate(355,300)" d="m0 0h8l1 2-3 1-2 4-4-1-2-4z" fill="#CFC515"/>
<path transform="translate(340,284)" d="m0 0 4 1 1 5-5 2-3-5z" fill="#FEFDF3"/>
<path transform="translate(317,253)" d="m0 0h3l4 3-1 4-7 1v-6z" fill="#F4F6F0"/>
<path transform="translate(254,247)" d="m0 0h1v5l4 2-5 5-3-1 1-6z" fill="#D8CD18"/>
<path transform="translate(266,131)" d="m0 0 2 2v3h2l1 2h4l-1 3-8 1-2-2 3-2-3-6z" fill="#E8BBA4"/>
<path transform="translate(331,308)" d="m0 0h5l-1 6-7-1-3-1v-2z" fill="#FFFEF3"/>
<path transform="translate(212,464)" d="m0 0 3 1-2 1 2 6v9l-2 2-2-13z" fill="#DAD5E1"/>
<path transform="translate(354,411)" d="m0 0h5l2 3v4h-5l-3-5z" fill="#FDEBDA"/>
<path transform="translate(193,385)" d="m0 0 4 1-2 4-4 2h-5l2-4z" fill="#EFBE70"/>
<path transform="translate(326,267)" d="m0 0 1 3 13-2-2 6-4 3 2-5-4-1-5 2-3-1z" fill="#D8CD18"/>
<path transform="translate(214,409)" d="m0 0h5l1 5 2 2-6-1-6-4z" fill="#FEFCF0"/>
<path transform="translate(336,331)" d="m0 0 2 1-5 8-6 1v-3l4-1 1-4z" fill="#FEFCED"/>
<path transform="translate(421,315)" d="m0 0 5 2 1-2 1 3-3 3-8 1 2-5h2z" fill="#FEFDF4"/>
<path transform="translate(341,244)" d="m0 0h6l3 3-1 2h-9v-4z" fill="#F3F9F4"/>
<path transform="translate(237,244)" d="m0 0h3l1 3h2l1 6-5 1-2-2-1-6z" fill="#EEE2D6"/>
<path transform="translate(249,237)" d="m0 0 2 1v7l-1 1h-5v-6z" fill="#F3F9F3"/>
<path transform="translate(384,184)" d="m0 0 5 1 5 3v4l-2-4-5 1h-4l-4-2 5-1z" fill="#FCFDF3"/>
<path transform="translate(229,508)" d="m0 0 2 1-3 9-3 3-2-4v-3l4-2z" fill="#E3E1E9"/>
<path transform="translate(582,479)" d="m0 0h26v2l-24 1-4 2v-4z" fill="#EEEDF3"/>
<path transform="translate(346,425)" d="m0 0 5 1v2l-2 1 1 4 1 2-4-2-3-2-1-5z" fill="#FDFDF5"/>
<path transform="translate(246,319)" d="m0 0 8 1 3 3-1 1-9 1z" fill="#918E02"/>
<path transform="translate(390,198)" d="m0 0 1 3-1 5-7 2 2-6z" fill="#D8CD18"/>
<path transform="translate(283,166)" d="m0 0h3l1 4-3 5-4-1v-5z" fill="#F2AE70"/>
<path transform="translate(313,164)" d="m0 0 14 3 4 4-10-2-7-3z" fill="#AAA5D2"/>
<path transform="translate(406,158)" d="m0 0 3 1v3l-1 1 1 6h-2v-4l-3 1-3-2 3-5z" fill="#FBFCF4"/>
<path transform="translate(267,131)" d="m0 0h7l-1 4h2l-1 4-4-1v-2h-2z" fill="#FFFEF3"/>
<path transform="translate(180,379)" d="m0 0 1 2 2 1-5 4-1 5-3 2 1-4-1-2h2v-2l-2-2 5-3zm-8 14 2 1-3 2z" fill="#F3C58C"/>
<path transform="translate(254,339)" d="m0 0h8l-1 4-9 1-1-4z" fill="#FCFDFB"/>
<path transform="translate(354,334)" d="m0 0 1 2 7 1-2 2-15 1v-3l4 1 3-2z" fill="#D8CD18"/>
<path transform="translate(329,289)" d="m0 0 2 1-2 5-8 1-3-1z" fill="#D8CD18"/>
<path transform="translate(242,264)" d="m0 0 1 2 3 1 2 4h-2v2h-2v-2l-4-1v-4z" fill="#A29E07"/>
<path transform="translate(213,257)" d="m0 0h1l1 9-2 5-4 2-1-3 4-1-1-9z" fill="#8C8A01"/>
<path transform="translate(398,228)" d="m0 0h3l1 4-3 1-4 6h-4v-2l5-2v-5h2z" fill="#979404"/>
<path transform="translate(161,379)" d="m0 0 1 3h2v5l-4 1h-3l-2-1 3-1 2-6z" fill="#F2BE88"/>
<path transform="translate(312,344)" d="m0 0 6 1 1 5-1 2-4-1z" fill="#FEFDF3"/>
<path transform="translate(222,337)" d="m0 0 4 1v2l4 2-1 3h-5l-3-3h2v-2h-2z" fill="#FBFAF6"/>
<path transform="translate(379,317)" d="m0 0 8 2 1 5-6-1-1-3h-5z" fill="#959203"/>
<path transform="translate(267,305)" d="m0 0h1l1 5 1-2 7-1-3 6-8-1z" fill="#FDFDF3"/>
<path transform="translate(257,258)" d="m0 0 1 2 2 1-1 4-1 1h-5v-6z" fill="#FDFBF9"/>
<path transform="translate(363,399)" d="m0 0 5 1v3l3 1v7l-4-4-1-3-3-3z" fill="#FEF7E9"/>
<path transform="translate(402,237)" d="m0 0h5l2 5-6 1-1-2-2 2 1-5z" fill="#FCFCF3"/>
<path transform="translate(174,407)" d="m0 0 7 1 2 3-3 3h-4l-1-4-2-2z" fill="#FDF1E2"/>
<path transform="translate(263,386)" d="m0 0 1 3-2 6-4 2-1-3 3-5z" fill="#FEF8EB"/>
<path transform="translate(230,302)" d="m0 0 5 1v4l5 1-2 2-4-1-5-3-3-2z" fill="#FEFDF3"/>
<path transform="translate(268,274)" d="m0 0 2 2-1 2h3l-1 6-4-1-2-1 1-3h2v-2l-2-1z" fill="#FDFDF8"/>
<path transform="translate(312,263)" d="m0 0 2 1-3 5v2l2 1-2 3-1-3-4 2 1-5z" fill="#FEFDF3"/>
<path transform="translate(418,295)" d="m0 0 5 2 1 4-1-2h-3v6l-3 2 1-5 1-3h-2z" fill="#FFFEF3"/>
<path transform="translate(570,471)" d="m0 0h5l2 2-1 4-5-1z" fill="#DDDAE6"/>
<path transform="translate(362,434)" d="m0 0 9 3 1 2-8 1-3-2 2-2z" fill="#F9350C"/>
<path transform="translate(160,401)" d="m0 0 3 1 2 3 3 2-3 6h-2l-1-4v-3z" fill="#F6ECE3"/>
<path transform="translate(247,337)" d="m0 0 4 4-1 4-7-3z" fill="#D4C521"/>
<path transform="translate(325,332)" d="m0 0h3l-1 3-3 2-1 3-4-1 1-5z" fill="#FDF8E7"/>
<path transform="translate(290,280)" d="m0 0 3 1-4 5-1 5-4-2 2-6h3z" fill="#9F9B06"/>
<path transform="translate(228,278)" d="m0 0h1v5l-3 1-4-1-1 3-1-4 3-3z" fill="#F1F8F4"/>
<path transform="translate(392,322)" d="m0 0 3 3 1 4 1 2-5 1 1-2-5-2 3-3z" fill="#D8CD18"/>
<path transform="translate(364,275)" d="m0 0 3 1 1 4-2 2h-4l-1-5z" fill="#FDFDFD"/>
<path transform="translate(275,269)" d="m0 0 1 3-3 1-1 4-3 1-1-5 1-2z" fill="#FEFCF0"/>
<path transform="translate(387,408)" d="m0 0v3zm-2 3h1l-1 13h-1l-1-6-2-1 2-5z" fill="#FCE4D0"/>
<path transform="translate(168,362)" d="m0 0h2l-1 4-5 2v5l-3-1 1-4 4-5z" fill="#FEF6E8"/>
<path transform="translate(290,344)" d="m0 0h10l-1 4-8-1-2-2z" fill="#F3F6F3"/>
<path transform="translate(421,309)" d="m0 0 4 1 1 7-4-2-1-3-5 1 2-3z" fill="#C1B815"/>
<path transform="translate(440,306)" d="m0 0 6 1-3 3h-2l-1 3h-5l3-1 1-5z" fill="#FFFEF3"/>
<path transform="translate(255,305)" d="m0 0 7 1v3l-1 1h-6l-2-3z" fill="#FFFEF3"/>
<path transform="translate(201,268)" d="m0 0 1 2 3-1 1 9h-4z" fill="#D2BF2C"/>
<path transform="translate(288,250)" d="m0 0 3 1-4 10-3 1v-5l2-3h2z" fill="#9E9A06"/>
<path transform="translate(168,407)" d="m0 0h4v2l4 1v2l-4-1-7 2 2-4z" fill="#F4A46F"/>
<path transform="translate(144,381)" d="m0 0 3 1 1 5 3 1-1 2-3-1-1-2h-3l-1-2z" fill="#FEF3E5"/>
<path transform="translate(212,363)" d="m0 0h8v2l-8 5-1-3z" fill="#FEFDF3"/>
<path transform="translate(365,340)" d="m0 0h7l-2 1-1 4-5 1-1 2 1-7z" fill="#FEF9EE"/>
<path transform="translate(208,234)" d="m0 0 3 3 1 5-3 1-3-5-3-2z" fill="#F3F7F1"/>
<path transform="translate(215,214)" d="m0 0h1l1 9h2v2l-4 1-2-2 1-6z" fill="#FFFEF3"/>
<path transform="translate(321,215)" d="m0 0 3 1 1 4-6 2-2 2-3-2h3l1-3h2z" fill="#FDF1E2"/>
<path transform="translate(428,166)" d="m0 0 8 1v2h-15l-1 2v-3z" fill="#FEF9ED"/>
<path transform="translate(294,520)" d="m0 0h3v2h2l-1 3-6 2-2-2h3z" fill="#E9E8F2"/>
<path transform="translate(182,398)" d="m0 0 4 1v2l2 1-4 2-1 2-3-5v-2z" fill="#FEF7EA"/>
<path transform="translate(379,394)" d="m0 0 5 1v7l-4-1z" fill="#F9350C"/>
<path transform="translate(422,357)" d="m0 0 1 2 5-1v6l-5-1-2-4z" fill="#9A9605"/>
<path transform="translate(341,348)" d="m0 0 9 1v2l-8 1-3-1v-2z" fill="#9E9405"/>
<path transform="translate(225,268)" d="m0 0 4 2 7-1-2 4h-7l-3-3z" fill="#FDFDF7"/>
<path transform="translate(214,231)" d="m0 0 2 3h2l1-2 2 1-1 5-4 1-2-1z" fill="#F9FBF3"/>
<path transform="translate(337,203)" d="m0 0v3l-4 1-1 9-2-3-1-5 3-3z" fill="#FEFDF3"/>
<path transform="translate(385,192)" d="m0 0 5 2h3l-1 2-5 3h-3v-6z" fill="#C1B911"/>
<path transform="translate(374,184)" d="m0 0 4 2-1 2h-3l-1 5-4-1h2l1-6z" fill="#FFFEF3"/>
<path transform="translate(215,347)" d="m0 0 5 1v3l-7 4z" fill="#F2F8F3"/>
<path transform="translate(206,340)" d="m0 0 3 2-3 1-1 3-4 3h-2l2-5z" fill="#D8CD18"/>
<path transform="translate(386,328)" d="m0 0 8 1-4 6-3-1 1-2h3l-7-2z" fill="#939003"/>
<path transform="translate(424,328)" d="m0 0 4 1 2 6-4-1-5-4z" fill="#FEFDF3"/>
<path transform="translate(300,284)" d="m0 0 3 3-2 3h-7l1-3 5-1z" fill="#FDFDFD"/>
<path transform="translate(233,278)" d="m0 0 7 1-2 5-3 1v-3h-2z" fill="#D8CD18"/>
<path transform="translate(298,270)" d="m0 0 4 1-2 5-5 2v-3z" fill="#8E8C01"/>
<path transform="translate(293,223)" d="m0 0h1v5l-2 4-4-1-1-4 5 1z" fill="#F5F9F3"/>
<path transform="translate(365,159)" d="m0 0h2v2h2l2 4v4h-2v-3h-3z" fill="#A09B07"/>
<path transform="translate(359,442)" d="m0 0h6l-3 5-3 1v-2h-3v-2h3z" fill="#F2F8F3"/>
<path transform="translate(262,300)" d="m0 0h4l1 5h-6l-2-2z" fill="#FFFEF3"/>
<path transform="translate(332,270)" d="m0 0 5 1-3 6h-2l-1-4-2-1z" fill="#FFFEF3"/>
<path transform="translate(249,264)" d="m0 0 1 3h2l1 3h-3l-1 3h-2v-7z" fill="#FBFBEB"/>
<path transform="translate(337,257)" d="m0 0 3 1 2 1v3h-8l1-4 1 1z" fill="#F1F8F3"/>
<path transform="translate(336,247)" d="m0 0h2v2h6v2l-10 2 1-4z" fill="#939003"/>
<path transform="translate(200,239)" d="m0 0 2 4 2 7-4-1-1-8z" fill="#FDFDFA"/>
<path transform="translate(203,433)" d="m0 0 4 2 4 3-3 1-5-1-1-4z" fill="#FFFEF3"/>
<path transform="translate(174,388)" d="m0 0 2 1-2 4-4 4h-2l1-5 3-1v-2z" fill="#F73A0C"/>
<path transform="translate(248,351)" d="m0 0 4 1-1 4-3 1-5-4z" fill="#CDC314"/>
<path transform="translate(223,344)" d="m0 0 4 2-5 4h-2v-2l-5-1 4-2 3 2z" fill="#FFFEF3"/>
<path transform="translate(237,317)" d="m0 0h4v4l-3 2h-3l1-5z" fill="#FEFDF3"/>
<path transform="translate(207,307)" d="m0 0 4 1 5 1-1 3-5 1-4-5z" fill="#A49F08"/>
<path transform="translate(359,290)" d="m0 0 5 2 1 4h-6z" fill="#FEFDF8"/>
<path transform="translate(241,283)" d="m0 0 2 2v7l-5-3 1-5z" fill="#D5CA17"/>
<path transform="translate(348,546)" d="m0 0h1l1 5v9l-3 1z" fill="#E3E1EA"/>
<path transform="translate(610,508)" d="m0 0h3l-1 4-3 2-4-1 2-3h3z" fill="#FDFDFA"/>
<path transform="translate(348,442)" d="m0 0 4 2 2 4h-5l-1 1h-1v-6z" fill="#FBFCF3"/>
<path transform="translate(161,434)" d="m0 0 2 4 3 10h-2l-4-8z" fill="#FDFBEF"/>
<path transform="translate(310,415)" d="m0 0 1 4-4 4-3-3 2-4 2 2h2z" fill="#FBD2B8"/>
<path transform="translate(319,412)" d="m0 0 3 1 2 5-1 2 3-1v3l-6 1 1-6z" fill="#F9BC9B"/>
<path transform="translate(321,401)" d="m0 0h7l-2 5 2 1-4-1-1-2-3-1z" fill="#E7CAB6"/>
<path transform="translate(402,328)" d="m0 0h6l2 3-4 1v-2h-3v2l-3 1 1-4z" fill="#FEFDF5"/>
<path transform="translate(453,325)" d="m0 0 2 2 7 1v1l-6 2h-4l-1-3h2z" fill="#FDFDF3"/>
<path transform="translate(413,315)" d="m0 0m-1 1 3 1v3l-4 2h-3l1-4z" fill="#F8F9F6"/>
<path transform="translate(325,317)" d="m0 0 11 1 1 2h-5l-2 3h-2v-5z" fill="#CFC515"/>
<path transform="translate(480,291)" d="m0 0h2l-1 7h-4v-2l-2-1 1-3 3 1z" fill="#918E02"/>
<path transform="translate(333,287)" d="m0 0 5 1 4 5-3 2-3-1-1-5z" fill="#D8CD18"/>
<path transform="translate(426,273)" d="m0 0h4l-1 3-3 1-1 2h-5l-1-4 5 3 1-4z" fill="#FFFEF3"/>
<path transform="translate(281,237)" d="m0 0 2 1-1 3-3 1-2 4h-2l-1-4 2-2 4-1z" fill="#FEFDF3"/>
<path transform="translate(390,205)" d="m0 0v3h-3l-2 4-2 2-1-5 2-2z" fill="#FFFEF3"/>
<path transform="translate(366,194)" d="m0 0 2 1v2l2-1h6l-4 2-2 2-1 3-1-4h-2z" fill="#FFFEF3"/>
<path transform="translate(140,417)" d="m0 0 7 1-4 4-4-1z" fill="#F6FAF7"/>
<path transform="translate(234,347)" d="m0 0 4 1 3 1-1 3-3 1-4-4z" fill="#F2F8F3"/>
<path transform="translate(196,328)" d="m0 0 2 1v3l-6 5-1-2z" fill="#949103"/>
<path transform="translate(433,261)" d="m0 0 4 1 2 7v6h-3l1-3-1-2v-7l-4-1z" fill="#FFFEF3"/>
<path transform="translate(202,260)" d="m0 0h2l1 7h-2l-1 3v-2h-2l1-7z" fill="#ACA60A"/>
<path transform="translate(262,183)" d="m0 0h3l-2 4-5 6h-2l1-3h2l2-6z" fill="#AAA4D1"/>
</svg>
